<svg width="146" height="36" viewBox="0 0 146 36" fill="none" xmlns="http://www.w3.org/2000/svg">
<path d="M18.096 0.247998L3.504 29.768C2.784 31.256 1.248 34.184 0.864 35H10.704C11.136 33.944 11.856 32.408 12.192 31.64L12.48 30.968H24.72L25.008 31.64C25.392 32.504 26.112 33.992 26.544 35H36.096C35.568 33.992 34.176 31.256 33.456 29.768L19.056 0.247998H18.096ZM17.04 24.152C16.176 24.152 15.456 24.296 15.36 24.392L15.264 24.2C15.36 24.152 15.744 23.768 16.08 23L17.184 20.552C18.096 18.488 18.432 17.144 18.432 16.904H18.624C18.624 17.144 18.96 18.488 19.92 20.552L21.072 23C21.504 23.96 21.744 24.152 21.84 24.2L21.744 24.392C21.6 24.296 20.976 24.152 20.064 24.152H17.04ZM40.0095 0.679998C40.0095 1.688 40.0575 5.048 40.0575 6.824V31.448C41.7855 33.176 46.2015 35.96 52.6335 35.96C61.6095 35.96 66.7935 30.632 66.7935 23.384C66.7935 15.8 61.7055 11.48 55.3695 11.48C52.3935 11.48 49.5615 12.68 48.4095 13.976L48.2175 13.88C48.3615 13.544 48.4575 12.584 48.4575 11.672V6.824C48.4575 5.048 48.5055 1.688 48.5055 0.679998H40.0095ZM48.4575 21.08C49.3215 19.64 50.8575 18.488 53.1615 18.488C56.1375 18.488 58.1535 20.84 58.1535 23.768C58.1535 26.744 55.9935 28.952 52.9215 28.952C50.9055 28.952 49.3215 27.992 48.4575 27.08V21.08ZM84.5543 11.48C76.4903 11.48 70.8263 16.952 70.8263 23.72C70.8263 30.488 76.4903 35.96 84.5543 35.96C92.6183 35.96 98.2823 30.488 98.2823 23.72C98.2823 16.952 92.6183 11.48 84.5543 11.48ZM84.5543 18.2C87.6263 18.2 89.8823 20.696 89.8823 23.72C89.8823 26.744 87.6263 29.24 84.5543 29.24C81.4823 29.24 79.2263 26.744 79.2263 23.72C79.2263 20.696 81.4823 18.2 84.5543 18.2ZM127.675 12.44H119.179C119.179 13.352 119.227 16.52 119.227 18.2V28.472C118.699 28.76 117.547 29.24 116.011 29.24C112.987 29.24 111.739 27.416 111.739 25.16V18.2C111.739 16.52 111.787 13.352 111.787 12.44H103.291C103.291 13.352 103.339 16.52 103.339 18.2V26.36C103.339 34.088 109.339 35.96 115.723 35.96C121.627 35.96 126.187 34.04 127.627 33.08V18.2C127.627 16.52 127.675 13.352 127.675 12.44ZM141.129 6.2H132.633C132.633 7.112 132.681 10.28 132.681 11.96V29.24C132.681 30.92 132.633 34.088 132.633 35H141.129C141.129 34.088 141.081 30.92 141.081 29.24V19.544C142.761 19.592 144.777 19.592 145.497 19.592V12.392C144.777 12.392 142.761 12.44 141.081 12.44V11.96C141.081 10.28 141.129 7.112 141.129 6.2Z" fill="#6AA2F6"/>
<path d="M18.096 0.247998V-1.252H17.1642L16.7513 -0.416693L18.096 0.247998ZM3.504 29.768L2.15926 29.1033L2.15376 29.1147L3.504 29.768ZM0.864 35L-0.493228 34.3613L-1.49967 36.5H0.864V35ZM10.704 35V36.5H11.711L12.0923 35.568L10.704 35ZM12.192 31.64L13.5663 32.2412L13.5707 32.2309L12.192 31.64ZM12.48 30.968V29.468H11.4909L11.1013 30.3771L12.48 30.968ZM24.72 30.968L26.0987 30.3771L25.7091 29.468H24.72V30.968ZM25.008 31.64L23.6293 32.2309L23.6332 32.2401L23.6373 32.2492L25.008 31.64ZM26.544 35L25.1653 35.5909L25.5549 36.5H26.544V35ZM36.096 35V36.5H38.575L37.4248 34.304L36.096 35ZM33.456 29.768L34.8062 29.1147L34.8042 29.1104L33.456 29.768ZM19.056 0.247998L20.4042 -0.409637L19.9932 -1.252H19.056V0.247998ZM15.36 24.392L14.0184 25.0628L14.9491 26.9242L16.4207 25.4527L15.36 24.392ZM15.264 24.2L14.5932 22.8584L13.2515 23.5292L13.9224 24.8708L15.264 24.2ZM16.08 23L14.7126 22.3833L14.7091 22.391L14.7058 22.3988L16.08 23ZM17.184 20.552L18.5514 21.1687L18.556 21.1582L17.184 20.552ZM18.432 16.904V15.404H16.932V16.904H18.432ZM18.624 16.904H20.124V15.404H18.624V16.904ZM19.92 20.552L18.5599 21.1846L18.5628 21.1907L19.92 20.552ZM21.072 23L22.4399 22.3845L22.4347 22.3728L22.4292 22.3613L21.072 23ZM21.84 24.2L23.1816 24.8708L23.8525 23.5292L22.5108 22.8584L21.84 24.2ZM21.744 24.392L20.912 25.6401L22.3257 26.5826L23.0856 25.0628L21.744 24.392ZM16.7513 -0.416693L2.15931 29.1033L4.84869 30.4327L19.4407 0.912689L16.7513 -0.416693ZM2.15376 29.1147C1.80269 29.8402 1.24745 30.9273 0.722702 31.9526C0.209666 32.9551 -0.287429 33.924 -0.493228 34.3613L2.22123 35.6387C2.39943 35.26 2.86233 34.3569 3.3933 33.3194C3.91255 32.3047 4.48531 31.1838 4.85424 30.4213L2.15376 29.1147ZM0.864 36.5H10.704V33.5H0.864V36.5ZM12.0923 35.568C12.5192 34.5245 13.1983 33.0822 13.5662 32.2412L10.8178 31.0388C10.5137 31.7338 9.75282 33.3635 9.31568 34.432L12.0923 35.568ZM13.5707 32.2309L13.8587 31.5589L11.1013 30.3771L10.8133 31.0491L13.5707 32.2309ZM12.48 32.468H24.72V29.468H12.48V32.468ZM23.3413 31.5589L23.6293 32.2309L26.3867 31.0491L26.0987 30.3771L23.3413 31.5589ZM23.6373 32.2492C24.0731 33.2298 24.7208 34.5538 25.1653 35.5909L27.9227 34.4091C27.5032 33.4302 26.7109 31.7782 26.3787 31.0308L23.6373 32.2492ZM26.544 36.5H36.096V33.5H26.544V36.5ZM37.4248 34.304C36.9023 33.3066 35.5178 30.5852 34.8062 29.1147L32.1058 30.4213C32.8342 31.9268 34.2337 34.6774 34.7673 35.696L37.4248 34.304ZM34.8042 29.1104L20.4042 -0.409637L17.7078 0.905634L32.1078 30.4256L34.8042 29.1104ZM19.056 -1.252H18.096V1.748H19.056V-1.252ZM17.04 22.652C16.5301 22.652 16.0549 22.6941 15.675 22.7548C15.4875 22.7848 15.2992 22.8232 15.1294 22.8717C15.0462 22.8955 14.9415 22.929 14.8324 22.9758C14.766 23.0044 14.5226 23.1081 14.2993 23.3313L16.4207 25.4527C16.3046 25.5687 16.1966 25.6364 16.1457 25.6664C16.0874 25.7007 16.0408 25.7219 16.0162 25.7324C15.9683 25.753 15.9423 25.7595 15.9536 25.7563C15.9728 25.7508 16.0365 25.7352 16.149 25.7172C16.3691 25.6819 16.6859 25.652 17.04 25.652V22.652ZM16.7016 23.7212L16.6056 23.5292L13.9224 24.8708L14.0184 25.0628L16.7016 23.7212ZM15.9348 25.5416C16.1913 25.4134 16.3779 25.2285 16.4454 25.1609C16.5552 25.0511 16.6673 24.9215 16.7776 24.7758C16.9998 24.4825 17.2395 24.0922 17.4542 23.6012L14.7058 22.3988C14.5845 22.6758 14.4642 22.8614 14.3864 22.9642C14.3467 23.0165 14.3238 23.0399 14.3241 23.0396C14.3248 23.0389 14.3281 23.0356 14.3341 23.0301C14.3399 23.0248 14.3502 23.0157 14.3647 23.0038C14.3786 22.9925 14.4018 22.9742 14.4333 22.9525C14.4614 22.9331 14.5167 22.8966 14.5932 22.8584L15.9348 25.5416ZM17.4474 23.6167L18.5514 21.1687L15.8166 19.9353L14.7126 22.3833L17.4474 23.6167ZM18.556 21.1582C19.0325 20.0798 19.3642 19.1769 19.5798 18.4977C19.6872 18.159 19.7684 17.8679 19.8244 17.6327C19.8667 17.4552 19.932 17.1642 19.932 16.904H16.932C16.932 16.7638 16.9553 16.7308 16.9061 16.9373C16.8706 17.0861 16.8108 17.305 16.7203 17.5903C16.5398 18.1591 16.2475 18.9602 15.812 19.9458L18.556 21.1582ZM18.432 18.404H18.624V15.404H18.432V18.404ZM17.124 16.904C17.124 17.166 17.1898 17.4572 17.2336 17.6381C17.2912 17.8756 17.3747 18.169 17.4863 18.5101C17.7099 19.1942 18.0562 20.1017 18.5599 21.1846L21.2801 19.9194C20.8238 18.9383 20.5221 18.1418 20.3377 17.5779C20.2453 17.295 20.1848 17.0784 20.1494 16.9319C20.1002 16.7288 20.124 16.762 20.124 16.904H17.124ZM18.5628 21.1907L19.7148 23.6387L22.4292 22.3613L21.2772 19.9133L18.5628 21.1907ZM19.7041 23.6155C19.9429 24.1461 20.159 24.5344 20.3671 24.8218C20.575 25.1089 20.8298 25.3719 21.1692 25.5416L22.5108 22.8584C22.7542 22.9801 22.841 23.1231 22.7969 23.0622C22.753 23.0016 22.6331 22.8139 22.4399 22.3845L19.7041 23.6155ZM20.4984 23.5292L20.4024 23.7212L23.0856 25.0628L23.1816 24.8708L20.4984 23.5292ZM22.576 23.1439C22.3391 22.986 22.087 22.9083 21.9672 22.8735C21.8049 22.8263 21.6255 22.7876 21.4386 22.7564C21.0626 22.6937 20.5957 22.652 20.064 22.652V25.652C20.4443 25.652 20.7454 25.6823 20.9454 25.7156C21.0465 25.7324 21.1072 25.7477 21.1308 25.7545C21.1426 25.758 21.1331 25.7558 21.108 25.7457C21.0931 25.7397 21.0138 25.708 20.912 25.6401L22.576 23.1439ZM20.064 22.652H17.04V25.652H20.064V22.652ZM40.0095 0.679998V-0.820002H38.5095V0.679998H40.0095ZM40.0575 31.448H38.5575V32.0693L38.9968 32.5087L40.0575 31.448ZM48.4095 13.976L47.7387 15.3176L48.7669 15.8317L49.5306 14.9725L48.4095 13.976ZM48.2175 13.88L46.8388 13.2891L46.2816 14.5891L47.5467 15.2216L48.2175 13.88ZM48.5055 0.679998H50.0055V-0.820002H48.5055V0.679998ZM48.4575 21.08L47.1713 20.3083L46.9575 20.6645V21.08H48.4575ZM48.4575 27.08H46.9575V27.6777L47.3686 28.1116L48.4575 27.08ZM38.5095 0.679998C38.5095 1.19397 38.5216 2.29813 38.5336 3.47915C38.5456 4.66895 38.5575 5.94501 38.5575 6.824H41.5575C41.5575 5.92699 41.5454 4.63505 41.5334 3.44885C41.5214 2.25387 41.5095 1.17403 41.5095 0.679998H38.5095ZM38.5575 6.824V31.448H41.5575V6.824H38.5575ZM38.9968 32.5087C40.9861 34.498 45.7762 37.46 52.6335 37.46V34.46C46.6268 34.46 42.5849 31.854 41.1182 30.3873L38.9968 32.5087ZM52.6335 37.46C57.4178 37.46 61.3486 36.0359 64.0984 33.4908C66.8558 30.9387 68.2935 27.3792 68.2935 23.384H65.2935C65.2935 26.6368 64.1392 29.3653 62.0606 31.2892C59.9744 33.2201 56.8252 34.46 52.6335 34.46V37.46ZM68.2935 23.384C68.2935 19.2431 66.8959 15.8635 64.5088 13.518C62.1301 11.1808 58.8801 9.98 55.3695 9.98V12.98C58.1949 12.98 60.6569 13.9392 62.4062 15.6579C64.1471 17.3685 65.2935 19.9409 65.2935 23.384H68.2935ZM55.3695 9.98C53.6877 9.98 52.0566 10.3174 50.6758 10.8386C49.322 11.3496 48.083 12.0855 47.2884 12.9795L49.5306 14.9725C49.888 14.5705 50.641 14.0584 51.7352 13.6454C52.8024 13.2426 54.0753 12.98 55.3695 12.98V9.98ZM49.0803 12.6344L48.8883 12.5384L47.5467 15.2216L47.7387 15.3176L49.0803 12.6344ZM49.5962 14.4709C49.7677 14.0709 49.842 13.5377 49.8831 13.1502C49.9312 12.6967 49.9575 12.1756 49.9575 11.672H46.9575C46.9575 12.0804 46.9358 12.4953 46.8999 12.8338C46.8819 13.0033 46.8619 13.1391 46.8429 13.2371C46.8202 13.3552 46.8112 13.3536 46.8388 13.2891L49.5962 14.4709ZM49.9575 11.672V6.824H46.9575V11.672H49.9575ZM49.9575 6.824C49.9575 5.94501 49.9694 4.66895 49.9814 3.47915C49.9934 2.29813 50.0055 1.19397 50.0055 0.679998H47.0055C47.0055 1.17403 46.9936 2.25387 46.9816 3.44885C46.9696 4.63505 46.9575 5.92699 46.9575 6.824H49.9575ZM48.5055 -0.820002H40.0095V2.18H48.5055V-0.820002ZM49.7437 21.8517C50.3672 20.8127 51.4411 19.988 53.1615 19.988V16.988C50.2739 16.988 48.2758 18.4673 47.1713 20.3083L49.7437 21.8517ZM53.1615 19.988C55.1912 19.988 56.6535 21.5454 56.6535 23.768H59.6535C59.6535 20.1346 57.0838 16.988 53.1615 16.988V19.988ZM56.6535 23.768C56.6535 25.9156 55.1651 27.452 52.9215 27.452V30.452C56.8219 30.452 59.6535 27.5724 59.6535 23.768H56.6535ZM52.9215 27.452C51.3839 27.452 50.1764 26.7133 49.5464 26.0484L47.3686 28.1116C48.4666 29.2707 50.4271 30.452 52.9215 30.452V27.452ZM49.9575 27.08V21.08H46.9575V27.08H49.9575ZM84.5543 9.98C75.7927 9.98 69.3262 15.9985 69.3262 23.72H72.3262C72.3262 17.9055 77.1879 12.98 84.5543 12.98V9.98ZM69.3262 23.72C69.3262 31.4415 75.7927 37.46 84.5543 37.46V34.46C77.1879 34.46 72.3262 29.5345 72.3262 23.72H69.3262ZM84.5543 37.46C93.3158 37.46 99.7822 31.4415 99.7822 23.72H96.7822C96.7822 29.5345 91.9207 34.46 84.5543 34.46V37.46ZM99.7822 23.72C99.7822 15.9985 93.3158 9.98 84.5543 9.98V12.98C91.9207 12.98 96.7822 17.9055 96.7822 23.72H99.7822ZM84.5543 19.7C86.7206 19.7 88.3822 21.445 88.3822 23.72H91.3822C91.3822 19.947 88.5319 16.7 84.5543 16.7V19.7ZM88.3822 23.72C88.3822 25.995 86.7206 27.74 84.5543 27.74V30.74C88.5319 30.74 91.3822 27.493 91.3822 23.72H88.3822ZM84.5543 27.74C82.3879 27.74 80.7262 25.995 80.7262 23.72H77.7262C77.7262 27.493 80.5766 30.74 84.5543 30.74V27.74ZM80.7262 23.72C80.7262 21.445 82.3879 19.7 84.5543 19.7V16.7C80.5766 16.7 77.7262 19.947 77.7262 23.72H80.7262ZM127.675 12.44H129.175V10.94H127.675V12.44ZM119.179 12.44V10.94H117.679V12.44H119.179ZM119.227 28.472L119.945 29.7888L120.727 29.3624V28.472H119.227ZM111.787 12.44H113.287V10.94H111.787V12.44ZM103.291 12.44V10.94H101.791V12.44H103.291ZM127.627 33.08L128.459 34.3281L129.127 33.8828V33.08H127.627ZM127.675 10.94H119.179V13.94H127.675V10.94ZM117.679 12.44C117.679 12.9066 117.691 13.9399 117.703 15.0481C117.715 16.1659 117.727 17.3696 117.727 18.2H120.727C120.727 17.3504 120.715 16.1301 120.703 15.0159C120.691 13.8921 120.679 12.8854 120.679 12.44H117.679ZM117.727 18.2V28.472H120.727V18.2H117.727ZM118.508 27.1552C118.146 27.3529 117.24 27.74 116.011 27.74V30.74C117.853 30.74 119.251 30.1671 119.945 29.7888L118.508 27.1552ZM116.011 27.74C114.808 27.74 114.178 27.3868 113.836 27.0216C113.477 26.6368 113.239 26.0252 113.239 25.16H110.239C110.239 26.5508 110.625 27.9792 111.645 29.0704C112.684 30.1812 114.189 30.74 116.011 30.74V27.74ZM113.239 25.16V18.2H110.239V25.16H113.239ZM113.239 18.2C113.239 17.3696 113.251 16.1659 113.263 15.0481C113.275 13.9398 113.287 12.9066 113.287 12.44H110.287C110.287 12.8854 110.275 13.8921 110.263 15.0159C110.251 16.1301 110.239 17.3504 110.239 18.2H113.239ZM111.787 10.94H103.291V13.94H111.787V10.94ZM101.791 12.44C101.791 12.9066 101.803 13.9398 101.815 15.0481C101.827 16.1659 101.839 17.3696 101.839 18.2H104.839C104.839 17.3504 104.827 16.1301 104.815 15.0159C104.803 13.8921 104.791 12.8854 104.791 12.44H101.791ZM101.839 18.2V26.36H104.839V18.2H101.839ZM101.839 26.36C101.839 30.6872 103.561 33.595 106.343 35.3306C108.999 36.988 112.436 37.46 115.723 37.46V34.46C112.625 34.46 109.871 33.996 107.931 32.7854C106.116 31.653 104.839 29.7608 104.839 26.36H101.839ZM115.723 37.46C121.901 37.46 126.755 35.4641 128.459 34.3281L126.795 31.8319C125.619 32.6159 121.353 34.46 115.723 34.46V37.46ZM129.127 33.08V18.2H126.127V33.08H129.127ZM129.127 18.2C129.127 17.3696 129.139 16.1659 129.151 15.0481C129.163 13.9398 129.175 12.9066 129.175 12.44H126.175C126.175 12.8854 126.163 13.8921 126.151 15.0159C126.139 16.1301 126.127 17.3504 126.127 18.2H129.127ZM141.129 6.2H142.629V4.7H141.129V6.2ZM132.633 6.2V4.7H131.133V6.2H132.633ZM132.633 35H131.133V36.5H132.633V35ZM141.129 35V36.5H142.629V35H141.129ZM141.081 19.544L141.124 18.0446L139.581 18.0005V19.544H141.081ZM145.497 19.592V21.092H146.997V19.592H145.497ZM145.497 12.392H146.997V10.892H145.497V12.392ZM141.081 12.44H139.581V13.94H141.081V12.44ZM141.129 4.7H132.633V7.7H141.129V4.7ZM131.133 6.2C131.133 6.66664 131.146 7.69985 131.157 8.80813C131.169 9.92594 131.181 11.1296 131.181 11.96H134.181C134.181 11.1104 134.169 9.89006 134.157 8.77587C134.145 7.65215 134.133 6.64536 134.133 6.2H131.133ZM131.181 11.96V29.24H134.181V11.96H131.181ZM131.181 29.24C131.181 30.0704 131.169 31.2741 131.157 32.3919C131.146 33.5001 131.133 34.5334 131.133 35H134.133C134.133 34.5546 134.145 33.5479 134.157 32.4241C134.169 31.3099 134.181 30.0896 134.181 29.24H131.181ZM132.633 36.5H141.129V33.5H132.633V36.5ZM142.629 35C142.629 34.5334 142.617 33.5001 142.605 32.3919C142.593 31.2741 142.581 30.0704 142.581 29.24H139.581C139.581 30.0896 139.593 31.3099 139.605 32.4241C139.618 33.5479 139.629 34.5546 139.629 35H142.629ZM142.581 29.24V19.544H139.581V29.24H142.581ZM141.039 21.0434C142.743 21.0921 144.78 21.092 145.497 21.092V18.092C144.775 18.092 142.78 18.0919 141.124 18.0446L141.039 21.0434ZM146.997 19.592V12.392H143.997V19.592H146.997ZM145.497 10.892C145.123 10.892 144.419 10.9043 143.627 10.9162C142.824 10.9282 141.909 10.94 141.081 10.94V13.94C141.933 13.94 142.867 13.9278 143.672 13.9158C144.488 13.9037 145.152 13.892 145.497 13.892V10.892ZM142.581 12.44V11.96H139.581V12.44H142.581ZM142.581 11.96C142.581 11.1296 142.593 9.92594 142.605 8.80813C142.617 7.69985 142.629 6.66664 142.629 6.2H139.629C139.629 6.64536 139.618 7.65215 139.605 8.77587C139.593 9.89006 139.581 11.1104 139.581 11.96H142.581Z" fill="#6AA2F7" fill-opacity="0.4"/>
</svg>
