<svg width="205" height="48" viewBox="0 0 205 48" fill="none" xmlns="http://www.w3.org/2000/svg">
<path d="M0.0640001 3.4V1.9H-1.436V3.4H0.0640001ZM0.0160003 37H-1.484V38.5H0.0160003V37ZM9.328 37V38.5H10.828V37H9.328ZM9.28 25.96V24.46H7.78V25.96H9.28ZM9.28 18.952H7.78V20.452H9.28V18.952ZM9.28 10.504V9.004H7.78V10.504H9.28ZM14.32 27.46C18.8034 27.46 22.0843 26.1091 24.2175 23.6875C26.3198 21.3012 27.1 18.1079 27.1 14.824H24.1C24.1 17.6841 23.4162 20.0588 21.9665 21.7045C20.5477 23.3149 18.1886 24.46 14.32 24.46V27.46ZM27.1 14.824C27.1 11.318 26.052 8.07945 23.9142 5.69799C21.7568 3.29461 18.6093 1.9 14.704 1.9V4.9C17.8547 4.9 20.1552 6.00138 21.6818 7.702C23.228 9.42455 24.1 11.898 24.1 14.824H27.1ZM14.704 1.9H0.0640001V4.9H14.704V1.9ZM-1.436 3.4V31.24H1.564V3.4H-1.436ZM-1.436 31.24C-1.436 32.0704 -1.44789 33.2741 -1.45991 34.3919C-1.47183 35.5001 -1.484 36.5334 -1.484 37H1.516C1.516 36.5546 1.52783 35.5479 1.53991 34.4241C1.55189 33.3099 1.564 32.0896 1.564 31.24H-1.436ZM0.0160003 38.5H9.328V35.5H0.0160003V38.5ZM10.828 37C10.828 36.5334 10.8158 35.5001 10.8039 34.3919C10.7919 33.2741 10.78 32.0704 10.78 31.24H7.78C7.78 32.0896 7.79211 33.3099 7.80409 34.4241C7.81617 35.5479 7.828 36.5546 7.828 37H10.828ZM10.78 31.24V25.96H7.78V31.24H10.78ZM9.28 27.46H14.32V24.46H9.28V27.46ZM10.78 18.952V10.504H7.78V18.952H10.78ZM9.28 12.004H12.448V9.004H9.28V12.004ZM12.448 12.004C13.4653 12.004 14.0813 12.3314 14.4548 12.74C14.8466 13.1686 15.124 13.8554 15.124 14.824H18.124C18.124 13.2965 17.6814 11.8234 16.6692 10.716C15.6387 9.58862 14.1667 9.004 12.448 9.004V12.004ZM15.124 14.824C15.124 15.7029 14.8475 16.3353 14.4522 16.7406C14.0637 17.139 13.43 17.452 12.448 17.452V20.452C14.106 20.452 15.5603 19.901 16.5998 18.8354C17.6325 17.7767 18.124 16.3451 18.124 14.824H15.124ZM12.448 17.452H9.28V20.452H12.448V17.452ZM42.3824 11.98C33.6208 11.98 27.1544 17.9985 27.1544 25.72H30.1544C30.1544 19.9055 35.016 14.98 42.3824 14.98V11.98ZM27.1544 25.72C27.1544 33.4415 33.6208 39.46 42.3824 39.46V36.46C35.016 36.46 30.1544 31.5345 30.1544 25.72H27.1544ZM42.3824 39.46C51.144 39.46 57.6104 33.4415 57.6104 25.72H54.6104C54.6104 31.5345 49.7488 36.46 42.3824 36.46V39.46ZM57.6104 25.72C57.6104 17.9985 51.144 11.98 42.3824 11.98V14.98C49.7488 14.98 54.6104 19.9055 54.6104 25.72H57.6104ZM42.3824 21.7C44.5487 21.7 46.2104 23.445 46.2104 25.72H49.2104C49.2104 21.947 46.36 18.7 42.3824 18.7V21.7ZM46.2104 25.72C46.2104 27.995 44.5487 29.74 42.3824 29.74V32.74C46.36 32.74 49.2104 29.493 49.2104 25.72H46.2104ZM42.3824 29.74C40.216 29.74 38.5544 27.995 38.5544 25.72H35.5544C35.5544 29.493 38.4047 32.74 42.3824 32.74V29.74ZM38.5544 25.72C38.5544 23.445 40.216 21.7 42.3824 21.7V18.7C38.4047 18.7 35.5544 21.947 35.5544 25.72H38.5544ZM78.1109 14.536H79.6109V13.6089L78.7817 13.1944L78.1109 14.536ZM69.5669 17.8L69.0098 19.1927L70.3652 19.7349L70.944 18.3947L69.5669 17.8ZM69.3269 17.704L67.8653 17.3667L67.5762 18.6193L68.7698 19.0967L69.3269 17.704ZM69.4709 14.44H70.9709V12.94H69.4709V14.44ZM61.1189 14.44V12.94H59.6189V14.44H61.1189ZM61.1189 37H59.6189V38.5H61.1189V37ZM69.6149 37V38.5H71.1149V37H69.6149ZM78.1109 22.072L77.5097 23.4462L79.6109 24.3655V22.072H78.1109ZM78.7817 13.1944C78.3762 12.9916 77.9137 12.8911 77.4998 12.8341C77.0638 12.7739 76.5715 12.748 76.0469 12.748V15.748C76.4822 15.748 76.83 15.7701 77.0899 15.8059C77.3721 15.8449 77.4615 15.8884 77.4401 15.8776L78.7817 13.1944ZM76.0469 12.748C72.7253 12.748 69.4109 14.3775 68.1898 17.2053L70.944 18.3947C71.5468 16.9985 73.5125 15.748 76.0469 15.748V12.748ZM70.124 16.4073L69.884 16.3113L68.7698 19.0967L69.0098 19.1927L70.124 16.4073ZM70.7885 18.0413C70.8997 17.5594 70.9351 16.8319 70.9522 16.2417C70.971 15.5984 70.9709 14.9169 70.9709 14.44H67.9709C67.9709 14.9231 67.9708 15.5616 67.9535 16.1543C67.9347 16.8001 67.8981 17.2246 67.8653 17.3667L70.7885 18.0413ZM69.4709 12.94H61.1189V15.94H69.4709V12.94ZM59.6189 14.44C59.6189 14.9066 59.631 15.9398 59.643 17.0481C59.655 18.1659 59.6669 19.3696 59.6669 20.2H62.6669C62.6669 19.3504 62.6548 18.1301 62.6428 17.0159C62.6307 15.8921 62.6189 14.8854 62.6189 14.44H59.6189ZM59.6669 20.2V31.24H62.6669V20.2H59.6669ZM59.6669 31.24C59.6669 32.0704 59.655 33.2741 59.643 34.3919C59.631 35.5001 59.6189 36.5334 59.6189 37H62.6189C62.6189 36.5546 62.6307 35.5479 62.6428 34.4241C62.6548 33.3099 62.6669 32.0896 62.6669 31.24H59.6669ZM61.1189 38.5H69.6149V35.5H61.1189V38.5ZM71.1149 37C71.1149 36.5334 71.1027 35.5001 71.0908 34.3919C71.0788 33.2741 71.0669 32.0704 71.0669 31.24H68.0669C68.0669 32.0896 68.079 33.3099 68.091 34.4241C68.103 35.5479 68.1149 36.5546 68.1149 37H71.1149ZM71.0669 31.24V26.632H68.0669V31.24H71.0669ZM71.0669 26.632C71.0669 25.4702 71.4559 24.5845 72.0769 23.9869C72.7008 23.3865 73.6942 22.948 75.1349 22.948V19.948C73.0715 19.948 71.2809 20.5895 69.9968 21.8251C68.7099 23.0635 68.0669 24.7698 68.0669 26.632H71.0669ZM75.1349 22.948C76.048 22.948 76.8997 23.1794 77.5097 23.4462L78.7121 20.6978C77.7861 20.2926 76.5257 19.948 75.1349 19.948V22.948ZM79.6109 22.072V14.536H76.6109V22.072H79.6109ZM90.7075 8.2H92.2075V6.7H90.7075V8.2ZM82.2115 8.2V6.7H80.7115V8.2H82.2115ZM82.2115 37H80.7115V38.5H82.2115V37ZM90.7075 37V38.5H92.2075V37H90.7075ZM90.6595 21.544L90.7023 20.0446L89.1595 20.0005V21.544H90.6595ZM95.0755 21.592V23.092H96.5755V21.592H95.0755ZM95.0755 14.392H96.5755V12.892H95.0755V14.392ZM90.6595 14.44H89.1595V15.94H90.6595V14.44ZM90.7075 6.7H82.2115V9.7H90.7075V6.7ZM80.7115 8.2C80.7115 8.66664 80.7237 9.69985 80.7356 10.8081C80.7476 11.9259 80.7595 13.1296 80.7595 13.96H83.7595C83.7595 13.1104 83.7474 11.8901 83.7354 10.7759C83.7233 9.65215 83.7115 8.64536 83.7115 8.2H80.7115ZM80.7595 13.96V31.24H83.7595V13.96H80.7595ZM80.7595 31.24C80.7595 32.0704 80.7476 33.2741 80.7356 34.3919C80.7237 35.5001 80.7115 36.5334 80.7115 37H83.7115C83.7115 36.5546 83.7233 35.5479 83.7354 34.4241C83.7474 33.3099 83.7595 32.0896 83.7595 31.24H80.7595ZM82.2115 38.5H90.7075V35.5H82.2115V38.5ZM92.2075 37C92.2075 36.5334 92.1953 35.5001 92.1834 34.3919C92.1714 33.2741 92.1595 32.0704 92.1595 31.24H89.1595C89.1595 32.0896 89.1716 33.3099 89.1836 34.4241C89.1957 35.5479 89.2075 36.5546 89.2075 37H92.2075ZM92.1595 31.24V21.544H89.1595V31.24H92.1595ZM90.6167 23.0434C92.3213 23.0921 94.3581 23.092 95.0755 23.092V20.092C94.3529 20.092 92.3577 20.0919 90.7023 20.0446L90.6167 23.0434ZM96.5755 21.592V14.392H93.5755V21.592H96.5755ZM95.0755 12.892C94.7006 12.892 93.997 12.9043 93.2051 12.9162C92.4018 12.9282 91.4874 12.94 90.6595 12.94V15.94C91.5116 15.94 92.4452 15.9278 93.2499 15.9158C94.066 15.9037 94.7304 15.892 95.0755 15.892V12.892ZM92.1595 14.44V13.96H89.1595V14.44H92.1595ZM92.1595 13.96C92.1595 13.1296 92.1714 11.9259 92.1834 10.8081C92.1953 9.69985 92.2075 8.66664 92.2075 8.2H89.2075C89.2075 8.64536 89.1957 9.65215 89.1836 10.7759C89.1716 11.8901 89.1595 13.1104 89.1595 13.96H92.1595ZM112.997 2.92H114.497V1.9309L113.588 1.54128L112.997 2.92ZM101.382 6.712L100.114 5.90941L100.111 5.91435L101.382 6.712ZM99.5095 47.56H98.0095V49.06H99.5095V47.56ZM108.006 47.56V49.06H109.506V47.56H108.006ZM107.958 20.392V18.892H106.458V20.392H107.958ZM112.854 20.44V21.94H114.354V20.44H112.854ZM112.854 14.392H114.354V12.892H112.854V14.392ZM107.958 14.44H106.458V15.94H107.958V14.44ZM112.997 9.544L112.672 11.0083L114.497 11.4139V9.544H112.997ZM113.588 1.54128C112.631 1.13098 111.087 0.939999 109.542 0.939999V3.94C110.972 3.94 112.02 4.13302 112.407 4.29872L113.588 1.54128ZM109.542 0.939999C105.901 0.939999 102.258 2.52486 100.114 5.90942L102.649 7.51458C104.153 5.13913 106.75 3.94 109.542 3.94V0.939999ZM100.111 5.91435C98.5905 8.33623 98.0575 11.4623 98.0575 15.4H101.058C101.058 11.6577 101.581 9.21577 102.652 7.50965L100.111 5.91435ZM98.0575 15.4V41.8H101.058V15.4H98.0575ZM98.0575 41.8C98.0575 42.6304 98.0456 43.8341 98.0336 44.9519C98.0217 46.0602 98.0095 47.0934 98.0095 47.56H101.009C101.009 47.1146 101.021 46.1079 101.033 44.9841C101.045 43.8699 101.058 42.6496 101.058 41.8H98.0575ZM99.5095 49.06H108.006V46.06H99.5095V49.06ZM109.506 47.56C109.506 47.0934 109.493 46.0602 109.481 44.9519C109.469 43.8341 109.458 42.6304 109.458 41.8H106.458C106.458 42.6496 106.47 43.8699 106.482 44.9841C106.494 46.1079 106.506 47.1146 106.506 47.56H109.506ZM109.458 41.8V20.392H106.458V41.8H109.458ZM107.958 21.892C108.81 21.892 109.821 21.9039 110.728 21.9159C111.624 21.9277 112.432 21.94 112.854 21.94V18.94C112.459 18.94 111.683 18.9283 110.767 18.9161C109.862 18.9041 108.833 18.892 107.958 18.892V21.892ZM114.354 20.44V14.392H111.354V20.44H114.354ZM112.854 12.892C112.432 12.892 111.624 12.9043 110.728 12.9161C109.821 12.9281 108.81 12.94 107.958 12.94V15.94C108.833 15.94 109.862 15.9279 110.767 15.9159C111.683 15.9037 112.459 15.892 112.854 15.892V12.892ZM109.458 14.44V13.48H106.458V14.44H109.458ZM109.458 13.48C109.458 12.329 109.718 11.7071 109.994 11.3874C110.235 11.1079 110.666 10.852 111.558 10.852V7.852C110.049 7.852 108.68 8.31607 107.721 9.42859C106.797 10.5009 106.458 11.943 106.458 13.48H109.458ZM111.558 10.852C111.868 10.852 112.265 10.9177 112.672 11.0083L113.323 8.07972C112.866 7.97825 112.207 7.852 111.558 7.852V10.852ZM114.497 9.544V2.92H111.497V9.544H114.497ZM129.851 11.98C121.09 11.98 114.623 17.9985 114.623 25.72H117.623C117.623 19.9055 122.485 14.98 129.851 14.98V11.98ZM114.623 25.72C114.623 33.4415 121.09 39.46 129.851 39.46V36.46C122.485 36.46 117.623 31.5345 117.623 25.72H114.623ZM129.851 39.46C138.613 39.46 145.079 33.4415 145.079 25.72H142.079C142.079 31.5345 137.218 36.46 129.851 36.46V39.46ZM145.079 25.72C145.079 17.9985 138.613 11.98 129.851 11.98V14.98C137.218 14.98 142.079 19.9055 142.079 25.72H145.079ZM129.851 21.7C132.017 21.7 133.679 23.445 133.679 25.72H136.679C136.679 21.947 133.829 18.7 129.851 18.7V21.7ZM133.679 25.72C133.679 27.995 132.017 29.74 129.851 29.74V32.74C133.829 32.74 136.679 29.493 136.679 25.72H133.679ZM129.851 29.74C127.685 29.74 126.023 27.995 126.023 25.72H123.023C123.023 29.493 125.873 32.74 129.851 32.74V29.74ZM126.023 25.72C126.023 23.445 127.685 21.7 129.851 21.7V18.7C125.873 18.7 123.023 21.947 123.023 25.72H126.023ZM148.593 0.0399981V-1.46H147.093V0.0399981H148.593ZM148.593 37H147.093V38.5H148.593V37ZM157.089 37V38.5H158.589V37H157.089ZM157.089 0.0399981H158.589V-1.46H157.089V0.0399981ZM147.093 0.0399981C147.093 0.506635 147.105 1.53985 147.117 2.64813C147.129 3.76594 147.141 4.96956 147.141 5.8H150.141C150.141 4.95044 150.129 3.73006 150.117 2.61587C150.105 1.49215 150.093 0.48536 150.093 0.0399981H147.093ZM147.141 5.8V31.24H150.141V5.8H147.141ZM147.141 31.24C147.141 32.0704 147.129 33.2741 147.117 34.3919C147.105 35.5001 147.093 36.5334 147.093 37H150.093C150.093 36.5546 150.105 35.5479 150.117 34.4241C150.129 33.3099 150.141 32.0896 150.141 31.24H147.141ZM148.593 38.5H157.089V35.5H148.593V38.5ZM158.589 37C158.589 36.5334 158.577 35.5001 158.565 34.3919C158.553 33.2741 158.541 32.0704 158.541 31.24H155.541C155.541 32.0896 155.553 33.3099 155.565 34.4241C155.577 35.5479 155.589 36.5546 155.589 37H158.589ZM158.541 31.24V5.8H155.541V31.24H158.541ZM158.541 5.8C158.541 4.96956 158.553 3.76594 158.565 2.64813C158.577 1.53985 158.589 0.506635 158.589 0.0399981H155.589C155.589 0.48536 155.577 1.49215 155.565 2.61587C155.553 3.73006 155.541 4.95044 155.541 5.8H158.541ZM157.089 -1.46H148.593V1.54H157.089V-1.46ZM172.23 14.44H173.73V12.94H172.23V14.44ZM163.734 14.44V12.94H162.234V14.44H163.734ZM163.734 37H162.234V38.5H163.734V37ZM172.23 37V38.5H173.73V37H172.23ZM172.23 12.94H163.734V15.94H172.23V12.94ZM162.234 14.44C162.234 14.9066 162.246 15.9398 162.258 17.0481C162.27 18.1659 162.282 19.3696 162.282 20.2H165.282C165.282 19.3504 165.27 18.1301 165.258 17.0159C165.246 15.8921 165.234 14.8854 165.234 14.44H162.234ZM162.282 20.2V31.24H165.282V20.2H162.282ZM162.282 31.24C162.282 32.0704 162.27 33.2741 162.258 34.3919C162.246 35.5001 162.234 36.5334 162.234 37H165.234C165.234 36.5546 165.246 35.5479 165.258 34.4241C165.27 33.3099 165.282 32.0896 165.282 31.24H162.282ZM163.734 38.5H172.23V35.5H163.734V38.5ZM173.73 37C173.73 36.5334 173.718 35.5001 173.706 34.3919C173.694 33.2741 173.682 32.0704 173.682 31.24H170.682C170.682 32.0896 170.694 33.3099 170.706 34.4241C170.718 35.5479 170.73 36.5546 170.73 37H173.73ZM173.682 31.24V20.2H170.682V31.24H173.682ZM173.682 20.2C173.682 19.3696 173.694 18.1659 173.706 17.0481C173.718 15.9398 173.73 14.9066 173.73 14.44H170.73C170.73 14.8854 170.718 15.8921 170.706 17.0159C170.694 18.1301 170.682 19.3504 170.682 20.2H173.682ZM167.958 0.0759983C164.633 0.0759983 161.898 2.81157 161.898 6.136H164.898C164.898 4.46842 166.29 3.076 167.958 3.076V0.0759983ZM161.898 6.136C161.898 9.46043 164.633 12.196 167.958 12.196V9.196C166.29 9.196 164.898 7.80357 164.898 6.136H161.898ZM167.958 12.196C171.282 12.196 174.018 9.46043 174.018 6.136H171.018C171.018 7.80357 169.625 9.196 167.958 9.196V12.196ZM174.018 6.136C174.018 2.81157 171.282 0.0759983 167.958 0.0759983V3.076C169.625 3.076 171.018 4.46842 171.018 6.136H174.018ZM190.882 11.98C182.121 11.98 175.654 17.9985 175.654 25.72H178.654C178.654 19.9055 183.516 14.98 190.882 14.98V11.98ZM175.654 25.72C175.654 33.4415 182.121 39.46 190.882 39.46V36.46C183.516 36.46 178.654 31.5345 178.654 25.72H175.654ZM190.882 39.46C199.644 39.46 206.11 33.4415 206.11 25.72H203.11C203.11 31.5345 198.249 36.46 190.882 36.46V39.46ZM206.11 25.72C206.11 17.9985 199.644 11.98 190.882 11.98V14.98C198.249 14.98 203.11 19.9055 203.11 25.72H206.11ZM190.882 21.7C193.049 21.7 194.71 23.445 194.71 25.72H197.71C197.71 21.947 194.86 18.7 190.882 18.7V21.7ZM194.71 25.72C194.71 27.995 193.049 29.74 190.882 29.74V32.74C194.86 32.74 197.71 29.493 197.71 25.72H194.71ZM190.882 29.74C188.716 29.74 187.054 27.995 187.054 25.72H184.054C184.054 29.493 186.905 32.74 190.882 32.74V29.74ZM187.054 25.72C187.054 23.445 188.716 21.7 190.882 21.7V18.7C186.905 18.7 184.054 21.947 184.054 25.72H187.054Z" fill="#6AA2F7" fill-opacity="0.4"/>
</svg>
