<svg width="131" height="39" viewBox="0 0 131 39" fill="none" xmlns="http://www.w3.org/2000/svg">
<path d="M25.44 20.2V18.7H24.0702L23.9462 20.0642L25.44 20.2ZM25.536 20.2L27.0298 20.0642L26.9058 18.7H25.536V20.2ZM27.12 25L28.4807 24.3686L28.4764 24.3595L27.12 25ZM33.312 38.344L31.9514 38.9754L32.3544 39.844H33.312V38.344ZM34.176 38.344V39.844H35.1213L35.5292 38.9913L34.176 38.344ZM47.952 9.544L49.3052 10.1913L49.3102 10.1806L47.952 9.544ZM50.976 3.4L52.3176 4.07081L53.403 1.9H50.976V3.4ZM41.136 3.4V1.9H40.1385L39.7527 2.81991L41.136 3.4ZM39.12 8.008L40.4742 8.65322L40.4782 8.64465L39.12 8.008ZM35.232 16.168L33.8778 15.5228L33.8738 15.5313L35.232 16.168ZM33.552 20.968V22.468H34.9095L35.0446 21.1173L33.552 20.968ZM33.36 20.968L31.8652 21.0926L31.9798 22.468H33.36V20.968ZM31.776 16.168L30.4113 16.7906L30.4159 16.8006L31.776 16.168ZM25.776 3.016L27.1407 2.39342L26.7404 1.516H25.776V3.016ZM24.912 3.016V1.516H23.9379L23.5417 2.40586L24.912 3.016ZM19.056 16.168L17.6857 15.5579L17.684 15.5618L19.056 16.168ZM17.472 20.968V22.468H18.8522L18.9668 21.0926L17.472 20.968ZM17.28 20.968L15.7874 21.1173L15.9225 22.468H17.28V20.968ZM15.696 16.168L17.0462 15.5147L17.0439 15.5099L15.696 16.168ZM11.712 8.008L13.0599 7.34989L13.0568 7.34352L13.0536 7.33718L11.712 8.008ZM9.648 3.4L11.0313 2.81991L10.6455 1.9H9.648V3.4ZM0.48 3.4V1.9H-1.71277L-0.918007 3.94367L0.48 3.4ZM3.312 9.544L1.95381 10.1807L1.95534 10.1839L3.312 9.544ZM16.896 38.344L15.5393 38.9839L15.945 39.844H16.896V38.344ZM17.76 38.344V39.844H18.727L19.1262 38.9632L17.76 38.344ZM23.808 25L22.4516 24.3595L22.4466 24.3701L22.4418 24.3808L23.808 25ZM25.44 21.7H25.536V18.7H25.44V21.7ZM24.0422 20.3358C24.0665 20.6032 24.1509 20.9699 24.2359 21.3018C24.3305 21.6712 24.4581 22.1186 24.6088 22.599C24.9073 23.5507 25.3149 24.6902 25.7636 25.6405L28.4764 24.3595C28.1091 23.5818 27.7487 22.5853 27.4712 21.701C27.3339 21.2634 27.2215 20.8678 27.1421 20.5576C27.0531 20.2101 27.0295 20.0608 27.0298 20.0642L24.0422 20.3358ZM25.7594 25.6314L31.9514 38.9754L34.6726 37.7126L28.4806 24.3686L25.7594 25.6314ZM33.312 39.844H34.176V36.844H33.312V39.844ZM35.5292 38.9913L49.3052 10.1913L46.5988 8.89674L32.8228 37.6967L35.5292 38.9913ZM49.3102 10.1806C50.02 8.66648 51.8807 4.94461 52.3176 4.07081L49.6344 2.72918C49.2073 3.58339 47.3241 7.34951 46.5938 8.90735L49.3102 10.1806ZM50.976 1.9H41.136V4.9H50.976V1.9ZM39.7527 2.81991C39.1291 4.30688 38.4675 5.86587 37.7618 7.37135L40.4782 8.64465C41.2125 7.07813 41.8949 5.46911 42.5193 3.98009L39.7527 2.81991ZM37.7659 7.36279L33.8779 15.5228L36.5861 16.8132L40.4741 8.65321L37.7659 7.36279ZM33.8738 15.5313C33.4799 16.3716 33.0515 17.5106 32.7206 18.4789C32.5534 18.9682 32.4053 19.4306 32.2943 19.8089C32.2003 20.1289 32.088 20.5332 32.0594 20.8187L35.0446 21.1173C35.04 21.1628 35.0597 21.0391 35.1727 20.6541C35.2687 20.3274 35.4026 19.9078 35.5594 19.4491C35.8765 18.5214 36.2641 17.5004 36.5902 16.8046L33.8738 15.5313ZM33.552 19.468H33.36V22.468H33.552V19.468ZM34.8548 20.8434C34.816 20.3771 34.6139 19.5555 34.3426 18.6814C34.0568 17.7604 33.6497 16.6398 33.1361 15.5354L30.4159 16.8006C30.8623 17.7602 31.2232 18.7516 31.4774 19.5706C31.6042 19.979 31.7016 20.3357 31.7686 20.6152C31.8022 20.755 31.8267 20.8698 31.8433 20.9581C31.8612 21.053 31.8652 21.0933 31.8652 21.0926L34.8548 20.8434ZM33.1407 15.5454L27.1407 2.39342L24.4113 3.63858L30.4113 16.7906L33.1407 15.5454ZM25.776 1.516H24.912V4.516H25.776V1.516ZM23.5417 2.40586L17.6857 15.5579L20.4263 16.7781L26.2823 3.62614L23.5417 2.40586ZM17.684 15.5618C17.2028 16.6506 16.8002 17.7585 16.5102 18.6724C16.2388 19.528 16.0171 20.3641 15.9772 20.8434L18.9668 21.0926C18.9661 21.1015 18.9691 21.0673 18.9878 20.9727C19.005 20.8859 19.0308 20.7719 19.0661 20.6315C19.1367 20.351 19.2389 19.9921 19.3698 19.5796C19.6318 18.7535 19.9972 17.7494 20.428 16.7742L17.684 15.5618ZM17.472 19.468H17.28V22.468H17.472V19.468ZM18.7726 20.8187C18.7465 20.5584 18.6518 20.1735 18.5634 19.8402C18.4623 19.459 18.3267 18.9915 18.1709 18.496C17.8652 17.5237 17.4551 16.3596 17.0462 15.5147L14.3458 16.8213C14.6569 17.4644 15.0148 18.4603 15.3091 19.396C15.4533 19.8545 15.5758 20.278 15.6636 20.6093C15.7642 20.9885 15.7895 21.1376 15.7874 21.1173L18.7726 20.8187ZM17.0439 15.5099L13.0599 7.34989L10.3641 8.6661L14.3481 16.8261L17.0439 15.5099ZM13.0536 7.33718C12.3106 5.85105 11.6559 4.30926 11.0313 2.81991L8.26471 3.98009C8.88814 5.46673 9.57743 7.09295 10.3704 8.67882L13.0536 7.33718ZM9.648 1.9H0.48V4.9H9.648V1.9ZM-0.918007 3.94367C-0.557606 4.87041 1.25871 8.69776 1.95381 10.1806L4.67019 8.90735C3.92529 7.31824 2.18961 3.65758 1.87801 2.85633L-0.918007 3.94367ZM1.95534 10.1839L15.5393 38.9839L18.2527 37.7041L4.66866 8.90411L1.95534 10.1839ZM16.896 39.844H17.76V36.844H16.896V39.844ZM19.1262 38.9632L25.1742 25.6192L22.4418 24.3808L16.3938 37.7248L19.1262 38.9632ZM25.1644 25.6405C25.609 24.6989 26.0272 23.5665 26.3378 22.6159C26.4943 22.1369 26.6283 21.6897 26.7279 21.3198C26.8162 20.9919 26.9085 20.615 26.9338 20.3358L23.9462 20.0642C23.9475 20.049 23.9258 20.1881 23.8311 20.5397C23.7477 20.8493 23.6297 21.2451 23.4862 21.6841C23.1968 22.5695 22.823 23.5731 22.4516 24.3595L25.1644 25.6405ZM61.9605 11.98C53.1989 11.98 46.7325 17.9985 46.7325 25.72H49.7325C49.7325 19.9055 54.5941 14.98 61.9605 14.98V11.98ZM46.7325 25.72C46.7325 33.4415 53.1989 39.46 61.9605 39.46V36.46C54.5941 36.46 49.7325 31.5345 49.7325 25.72H46.7325ZM61.9605 39.46C70.7221 39.46 77.1885 33.4415 77.1885 25.72H74.1885C74.1885 31.5345 69.3269 36.46 61.9605 36.46V39.46ZM77.1885 25.72C77.1885 17.9985 70.7221 11.98 61.9605 11.98V14.98C69.3269 14.98 74.1885 19.9055 74.1885 25.72H77.1885ZM61.9605 21.7C64.1269 21.7 65.7885 23.445 65.7885 25.72H68.7885C68.7885 21.947 65.9381 18.7 61.9605 18.7V21.7ZM65.7885 25.72C65.7885 27.995 64.1269 29.74 61.9605 29.74V32.74C65.9381 32.74 68.7885 29.493 68.7885 25.72H65.7885ZM61.9605 29.74C59.7941 29.74 58.1325 27.995 58.1325 25.72H55.1325C55.1325 29.493 57.9829 32.74 61.9605 32.74V29.74ZM58.1325 25.72C58.1325 23.445 59.7941 21.7 61.9605 21.7V18.7C57.9829 18.7 55.1325 21.947 55.1325 25.72H58.1325ZM97.689 14.536H99.189V13.6089L98.3598 13.1944L97.689 14.536ZM89.145 17.8L88.5879 19.1927L89.9434 19.7349L90.5221 18.3947L89.145 17.8ZM88.905 17.704L87.4434 17.3667L87.1544 18.6193L88.3479 19.0967L88.905 17.704ZM89.049 14.44H90.549V12.94H89.049V14.44ZM80.697 14.44V12.94H79.197V14.44H80.697ZM80.697 37H79.197V38.5H80.697V37ZM89.193 37V38.5H90.693V37H89.193ZM97.689 22.072L97.0878 23.4462L99.189 24.3655V22.072H97.689ZM98.3598 13.1944C97.9544 12.9916 97.4918 12.8911 97.078 12.8341C96.6419 12.7739 96.1496 12.748 95.625 12.748V15.748C96.0604 15.748 96.4081 15.7701 96.668 15.8059C96.9502 15.8449 97.0396 15.8884 97.0182 15.8776L98.3598 13.1944ZM95.625 12.748C92.3034 12.748 88.989 14.3775 87.7679 17.2053L90.5221 18.3947C91.125 16.9985 93.0906 15.748 95.625 15.748V12.748ZM89.7021 16.4073L89.4621 16.3113L88.3479 19.0967L88.5879 19.1927L89.7021 16.4073ZM90.3666 18.0413C90.4778 17.5594 90.5132 16.8319 90.5304 16.2417C90.5491 15.5984 90.549 14.9169 90.549 14.44H87.549C87.549 14.9231 87.5489 15.5616 87.5316 16.1543C87.5128 16.8001 87.4762 17.2246 87.4434 17.3667L90.3666 18.0413ZM89.049 12.94H80.697V15.94H89.049V12.94ZM79.197 14.44C79.197 14.9066 79.2092 15.9398 79.2211 17.0481C79.2331 18.1659 79.245 19.3696 79.245 20.2H82.245C82.245 19.3504 82.2329 18.1301 82.2209 17.0159C82.2088 15.8921 82.197 14.8854 82.197 14.44H79.197ZM79.245 20.2V31.24H82.245V20.2H79.245ZM79.245 31.24C79.245 32.0704 79.2331 33.2741 79.2211 34.3919C79.2092 35.5001 79.197 36.5334 79.197 37H82.197C82.197 36.5546 82.2088 35.5479 82.2209 34.4241C82.2329 33.3099 82.245 32.0896 82.245 31.24H79.245ZM80.697 38.5H89.193V35.5H80.697V38.5ZM90.693 37C90.693 36.5334 90.6808 35.5001 90.6689 34.3919C90.6569 33.2741 90.645 32.0704 90.645 31.24H87.645C87.645 32.0896 87.6571 33.3099 87.6691 34.4241C87.6812 35.5479 87.693 36.5546 87.693 37H90.693ZM90.645 31.24V26.632H87.645V31.24H90.645ZM90.645 26.632C90.645 25.4702 91.034 24.5845 91.6551 23.9869C92.2789 23.3865 93.2723 22.948 94.713 22.948V19.948C92.6497 19.948 90.8591 20.5895 89.5749 21.8251C88.288 23.0635 87.645 24.7698 87.645 26.632H90.645ZM94.713 22.948C95.6262 22.948 96.4778 23.1794 97.0878 23.4462L98.2902 20.6978C97.3642 20.2926 96.1038 19.948 94.713 19.948V22.948ZM99.189 22.072V14.536H96.189V22.072H99.189ZM101.79 0.0399981V-1.46H100.29V0.0399981H101.79ZM101.79 37H100.29V38.5H101.79V37ZM110.286 37V38.5H111.786V37H110.286ZM110.238 27.88L111.324 26.846L108.738 24.1278V27.88H110.238ZM115.902 33.832L117.014 32.8256L117.001 32.8116L116.988 32.798L115.902 33.832ZM118.734 37L117.595 37.9762L118.044 38.5H118.734V37ZM130.254 37V38.5H133.808L131.328 35.9536L130.254 37ZM124.398 31.24L125.458 30.1793L124.398 31.24ZM118.254 25.096L117.216 24.0126L116.109 25.0728L117.193 26.1567L118.254 25.096ZM123.918 19.672L122.9 18.5698L122.89 18.5791L122.88 18.5886L123.918 19.672ZM129.39 14.44L130.423 15.5275L133.146 12.94H129.39V14.44ZM118.446 14.44V12.94H117.8L117.357 13.4084L118.446 14.44ZM115.806 17.224L114.745 16.1633V16.1633L115.806 17.224ZM110.238 22.792H108.738V26.4133L111.298 23.8527L110.238 22.792ZM110.286 0.0399981H111.786V-1.46H110.286V0.0399981ZM100.29 0.0399981C100.29 0.506635 100.302 1.53985 100.314 2.64813C100.326 3.76594 100.338 4.96956 100.338 5.8H103.338C103.338 4.95044 103.326 3.73006 103.314 2.61587C103.301 1.49215 103.29 0.48536 103.29 0.0399981H100.29ZM100.338 5.8V31.24H103.338V5.8H100.338ZM100.338 31.24C100.338 32.0704 100.326 33.2741 100.314 34.3919C100.302 35.5001 100.29 36.5334 100.29 37H103.29C103.29 36.5546 103.301 35.5479 103.314 34.4241C103.326 33.3099 103.338 32.0896 103.338 31.24H100.338ZM101.79 38.5H110.286V35.5H101.79V38.5ZM111.786 37C111.786 36.5334 111.773 35.5001 111.762 34.3919C111.75 33.2741 111.738 32.0704 111.738 31.24H108.738C108.738 32.0896 108.75 33.3099 108.762 34.4241C108.774 35.5479 108.786 36.5546 108.786 37H111.786ZM111.738 31.24V27.88H108.738V31.24H111.738ZM109.151 28.914L114.815 34.866L116.988 32.798L111.324 26.846L109.151 28.914ZM114.789 34.8384C115.713 35.8589 116.748 36.9882 117.595 37.9762L119.873 36.0238C118.991 34.9958 117.915 33.8211 117.014 32.8256L114.789 34.8384ZM118.734 38.5H130.254V35.5H118.734V38.5ZM131.328 35.9536C129.566 34.144 127.159 31.8801 125.458 30.1793L123.337 32.3007C125.188 34.1519 127.389 36.208 129.179 38.0464L131.328 35.9536ZM125.458 30.1793L119.314 24.0353L117.193 26.1567L123.337 32.3007L125.458 30.1793ZM119.291 26.1794L124.955 20.7554L122.88 18.5886L117.216 24.0126L119.291 26.1794ZM124.935 20.7742C126.189 19.6168 128.537 17.3186 130.423 15.5275L128.357 13.3525C126.402 15.2094 124.142 17.4232 122.9 18.5698L124.935 20.7742ZM129.39 12.94H118.446V15.94H129.39V12.94ZM117.357 13.4084C116.454 14.3612 115.688 15.2202 114.745 16.1633L116.866 18.2847C117.843 17.3078 118.709 16.3428 119.535 15.4716L117.357 13.4084ZM114.745 16.1633L109.177 21.7313L111.298 23.8527L116.866 18.2847L114.745 16.1633ZM111.738 22.792V5.8H108.738V22.792H111.738ZM111.738 5.8C111.738 4.96956 111.75 3.76594 111.762 2.64813C111.773 1.53985 111.786 0.506635 111.786 0.0399981H108.786C108.786 0.48536 108.774 1.49215 108.762 2.61587C108.75 3.73006 108.738 4.95044 108.738 5.8H111.738ZM110.286 -1.46H101.79V1.54H110.286V-1.46Z" fill="#6AA2F7" fill-opacity="0.4"/>
</svg>
