<svg width="46" height="30" viewBox="0 0 46 30" fill="none" xmlns="http://www.w3.org/2000/svg">
<path d="M31.4333 3.45202H31.3833V3.50202V5.03539V5.08539H31.4333H40.6333H40.6833V5.03539V3.50202V3.45202H40.6333H31.4333ZM41.3999 6.51866H30.6666C30.4479 6.51866 30.2696 6.44598 30.1461 6.32245C30.0226 6.19892 29.9499 6.02061 29.9499 5.80202V2.73539C29.9499 2.51675 30.0226 2.33844 30.1461 2.21492C30.2696 2.0914 30.4479 2.01875 30.6666 2.01875H41.3999C41.6186 2.01875 41.7969 2.0914 41.9204 2.21492C42.0439 2.33844 42.1166 2.51675 42.1166 2.73539V5.80202C42.1166 6.02066 42.0439 6.19897 41.9204 6.32248C41.7969 6.446 41.6186 6.51866 41.3999 6.51866Z" fill="#6AA2F6" stroke="#F2F8FF" stroke-width="0.1"/>
<path d="M19.5228 13.4284L19.4495 13.4759L19.5276 13.515C20.5197 14.011 21.7001 14.8111 22.5658 16.0764C23.4308 17.3406 23.984 19.0726 23.717 21.4378C23.4124 24.0642 21.9674 25.6996 20.1966 26.6801C18.4238 27.6619 16.3246 27.9868 14.72 27.9868H14.7187H14.7173H14.716H14.7146H14.7133H14.7119H14.7106H14.7092H14.7079H14.7065H14.7052H14.7038H14.7025H14.7011H14.6998H14.6984H14.6971H14.6957H14.6944H14.693H14.6917H14.6904H14.689H14.6877H14.6863H14.685H14.6836H14.6823H14.6809H14.6796H14.6782H14.6769H14.6755H14.6742H14.6728H14.6715H14.6701H14.6688H14.6674H14.6661H14.6647H14.6634H14.6621H14.6607H14.6594H14.658H14.6567H14.6553H14.654H14.6526H14.6513H14.6499H14.6486H14.6472H14.6459H14.6445H14.6432H14.6418H14.6405H14.6391H14.6378H14.6364H14.6351H14.6337H14.6324H14.6311H14.6297H14.6284H14.627H14.6257H14.6243H14.623H14.6216H14.6203H14.6189H14.6176H14.6162H14.6149H14.6135H14.6122H14.6108H14.6095H14.6081H14.6068H14.6054H14.6041H14.6028H14.6014H14.6001H14.5987H14.5974H14.596H14.5947H14.5933H14.592H14.5906H14.5893H14.5879H14.5866H14.5852H14.5839H14.5825H14.5812H14.5798H14.5785H14.5771H14.5758H14.5745H14.5731H14.5718H14.5704H14.5691H14.5677H14.5664H14.565H14.5637H14.5623H14.561H14.5596H14.5583H14.5569H14.5556H14.5542H14.5529H14.5515H14.5502H14.5488H14.5475H14.5462H14.5448H14.5435H14.5421H14.5408H14.5394H14.5381H14.5367H14.5354H14.534H14.5327H14.5313H14.53H14.5286H14.5273H14.5259H14.5246H14.5232H14.5219H14.5205H14.5192H14.5179H14.5165H14.5152H14.5138H14.5125H14.5111H14.5098H14.5084H14.5071H14.5057H14.5044H14.503H14.5017H14.5003H14.499H14.4976H14.4963H14.4949H14.4936H14.4922H14.4909H14.4896H14.4882H14.4869H14.4855H14.4842H14.4828H14.4815H14.4801H14.4788H14.4774H14.4761H14.4747H14.4734H14.472H14.4707H14.4693H14.468H14.4666H14.4653H14.4639H14.4626H14.4613H14.4599H14.4586H14.4572H14.4559H14.4545H14.4532H14.4518H14.4505H14.4491H14.4478H14.4464H14.4451H14.4437H14.4424H14.441H14.4397H14.4383H14.437H14.4356H14.4343H14.4329H14.4316H14.4303H14.4289H14.4276H14.4262H14.4249H14.4235H14.4222H14.4208H14.4195H14.4181H14.4168H14.4154H14.4141H14.4127H14.4114H14.41H14.4087H14.4073H14.406H14.4046H14.4033H14.402H14.4006H14.3993H14.3979H14.3966H14.3952H14.3939H14.3925H14.3912H14.3898H14.3885H14.3871H14.3858H14.3844H14.3831H14.3817H14.3804H14.379H14.3777H14.3763H14.375H14.3737H14.3723H14.371H14.3696H14.3683H14.3669H14.3656H14.3642H14.3629H14.3615H14.3602H14.3588H14.3575H14.3561H14.3548H14.3534H14.3521H14.3507H14.3494H14.348H14.3467H14.3454H14.344H14.3427H14.3413H14.34H14.3386H14.3373H14.3359H14.3346H14.3332H14.3319H14.3305H14.3292H14.3278H14.3265H14.3251H14.3238H14.3224H14.3211H14.3197H14.3184H14.3171H14.3157H14.3144H14.313H14.3117H14.3103H14.309H14.3076H14.3063H14.3049H14.3036H14.3022H14.3009H14.2995H14.2982H14.2968H14.2955H14.2941H14.2928H14.2914H14.2901H14.2887H14.2874H14.2861H14.2847H14.2834H14.282H14.2807H14.2793H14.278H14.2766H14.2753H14.2739H14.2726H14.2712H14.2699H14.2685H14.2672H14.2658H14.2645H14.2631H14.2618H14.2604H14.2591H14.2578H14.2564H14.2551H14.2537H14.2524H14.251H14.2497H14.2483H14.247H14.2456H14.2443H14.2429H14.2416H14.2402H14.2389H14.2375H14.2362H14.2348H14.2335H14.2321H14.2308H14.2295H14.2281H14.2268H14.2254H14.2241H14.2227H14.2214H14.22H14.2187H14.2173H14.216H14.2146H14.2133H14.2119H14.2106H14.2092H14.2079H14.2065H14.2052H14.2038H14.2025H14.2012H14.1998H14.1985H14.1971H14.1958H14.1944H14.1931H14.1917H14.1904H14.189H14.1877H14.1863H14.185H14.1836H14.1823H14.1809H14.1796H14.1782H14.1769H14.1755H14.1742H14.1729H14.1715H14.1702H14.1688H14.1675H14.1661H14.1648H14.1634H14.1621H14.1607H14.1594H14.158H14.1567H14.1553H14.154H14.1526H14.1513H14.1499H14.1486H14.1472H14.1459H14.1446H14.1432H14.1419H14.1405H14.1392H14.1378H14.1365H14.1351H14.1338H14.1324H14.1311H14.1297H14.1284H14.127H14.1257H14.1243H14.123H14.1216H14.1203H14.1189H14.1176H14.1163H14.1149H14.1136H14.1122H14.1109H14.1095H14.1082H14.1068H14.1055H14.1041H14.1028H14.1014H14.1001H14.0987H14.0974H14.096H14.0947H14.0933H14.092H14.0906H14.0893H14.0879H14.0866H14.0853H14.0839H14.0826H14.0812H14.0799H14.0785H14.0772H14.0758H14.0745H14.0731H14.0718H14.0704H14.0691H14.0677H14.0664H14.065H14.0637H14.0623H14.061H14.0596H14.0583H14.057H14.0556H14.0543H14.0529H14.0516H14.0502H14.0489H14.0475H14.0462H14.0448H14.0435H14.0421H14.0408H14.0394H14.0381H14.0367H14.0354H14.034H14.0327H14.0313H14.03H0.766637C0.547998 27.9868 0.369693 27.9142 0.246174 27.7906C0.122654 27.6671 0.05 27.4888 0.05 27.2702V1.20355C0.05 0.984911 0.122654 0.806607 0.246174 0.683087C0.369693 0.559568 0.547998 0.486914 0.766637 0.486914H13.7234V0.486935L13.7248 0.486892C15.021 0.448783 16.9286 0.735001 18.6158 1.65005C20.3012 2.56421 21.7654 4.10492 22.1841 6.57862L22.1842 6.57913C22.5274 8.48602 22.2409 9.95074 21.6808 11.0615C21.1203 12.173 20.284 12.9335 19.5228 13.4284ZM1.48336 26.5035V26.5535H1.53336H14.1067C14.121 26.5535 14.1446 26.5541 14.1771 26.5548C14.577 26.564 16.3071 26.6036 18.0704 26.0336C19.9786 25.4169 21.9348 24.0827 22.283 21.2196C22.6303 18.364 21.4909 16.6228 20.2333 15.5974C19.6055 15.0855 18.9491 14.7525 18.4353 14.5475C18.1784 14.4449 17.9568 14.3742 17.7918 14.3291C17.7094 14.3066 17.6409 14.2904 17.589 14.2797C17.5433 14.2704 17.5071 14.2646 17.4858 14.2637C17.13 14.1907 16.9167 13.9068 16.9167 13.5469C16.9167 13.1829 17.1345 12.899 17.4155 12.8288L17.4158 12.83L17.4257 12.825C17.4334 12.8212 17.4534 12.8138 17.4844 12.8025C17.7281 12.7132 18.6459 12.3771 19.4604 11.5798C20.3821 10.6775 21.1739 9.18526 20.7493 6.79168C20.3234 4.35243 18.5798 3.13426 16.9416 2.52714C15.3041 1.92031 13.7637 1.92028 13.7234 1.92028H1.53336H1.48336V1.97028V26.5035Z" fill="#6AA2F6" stroke="#F2F8FF" stroke-width="0.1"/>
<path d="M45.1858 22.8097L45.1855 22.8096L45.1844 22.815C45.1285 23.076 44.9157 23.6266 44.5169 24.3071C44.1187 24.9866 43.5368 25.7928 42.745 26.5655C41.162 28.1104 38.7399 29.5221 35.2666 29.5221C29.164 29.5221 24.5832 24.6411 24.5832 18.0721C24.5832 15.7495 25.7261 13.27 27.6352 11.3705C29.5437 9.47154 32.2147 8.15547 35.2666 8.15547C38.3968 8.15547 41.0667 9.33854 42.9543 11.3596C44.8421 13.3809 45.95 16.2432 45.95 19.6055C45.95 19.8241 45.8773 20.0024 45.7538 20.1259C45.6303 20.2494 45.4519 20.3221 45.2332 20.3221H32.1998H32.1449L32.15 20.3768C32.2658 21.6115 32.6715 22.5821 33.3336 23.2442C33.9963 23.9068 34.9107 24.2555 36.0332 24.2555C37.1161 24.2555 37.8362 23.9652 38.3251 23.5936C38.8134 23.2226 39.0667 22.7736 39.2213 22.4645L39.2223 22.465L39.225 22.4542C39.296 22.1704 39.5822 21.9555 39.8665 21.9555H44.4665C44.685 21.9555 44.8968 22.0276 45.0383 22.2398L45.0375 22.2404L45.0445 22.2475C45.1865 22.3894 45.2557 22.6001 45.1858 22.8097ZM40.3266 23.3887H40.2957L40.2819 23.4164C39.8294 24.3215 38.6189 25.6887 35.9566 25.6887C34.3211 25.6887 32.9938 25.0996 32.0747 24.0479C31.155 22.9954 30.64 21.4748 30.64 19.6054C30.64 19.3867 30.7126 19.2084 30.8361 19.0849C30.9597 18.9614 31.138 18.8887 31.3566 18.8887H44.39H44.4426L44.4399 18.8362C44.3245 16.5272 43.5355 14.2158 42.0222 12.4809C40.508 10.7448 38.2708 9.58874 35.2666 9.58874C32.6451 9.58874 30.3329 10.726 28.6765 12.3535C27.0208 13.9804 26.0166 16.1009 26.0166 18.0721C26.0166 23.8457 29.8684 28.0887 35.2666 28.0887C39.9688 28.0887 42.359 25.0813 43.2834 23.4635L43.3261 23.3887H43.24H40.3266Z" fill="#6AA2F6" stroke="#F2F8FF" stroke-width="0.1"/>
<path d="M5.41673 11.1695V11.1695V5.03617C5.41673 4.81753 5.48938 4.63922 5.6129 4.51571C5.73642 4.39219 5.91473 4.31953 6.13336 4.31953H13.8C15.9191 4.31953 17.5834 5.98387 17.5834 8.10289C17.5834 10.222 15.919 11.8863 13.8 11.8863H6.13336C5.91472 11.8863 5.7364 11.8136 5.61287 11.6901C5.48934 11.5665 5.41668 11.3882 5.41673 11.1695ZM6.9 5.75289H6.85V5.80289V10.4029V10.4529H6.9H13.8C15.131 10.4529 16.15 9.43387 16.15 8.10289C16.15 6.77192 15.131 5.75289 13.8 5.75289H6.9Z" fill="#6AA2F6" stroke="#F2F8FF" stroke-width="0.1"/>
<path d="M6.85 22.6706V22.7206H6.9H13.0334C14.7476 22.7206 16.15 21.3182 16.15 19.6038C16.15 17.8896 14.7476 16.4872 13.0334 16.4872H6.9H6.85V16.5372V22.6706ZM6.13336 15.0539H13.0334C15.5357 15.0539 17.5834 17.1014 17.5834 19.6038C17.5834 22.1062 15.5357 24.1538 13.0334 24.1538H6.13336C5.91472 24.1538 5.73642 24.0812 5.6129 23.9577C5.48938 23.8341 5.41673 23.6558 5.41673 23.4372V15.7705C5.41673 15.5519 5.48938 15.3736 5.6129 15.2501C5.73642 15.1266 5.91472 15.0539 6.13336 15.0539Z" fill="#6AA2F6" stroke="#F2F8FF" stroke-width="0.1"/>
<path d="M32.15 15.7719V15.8219H32.2H39.1H39.15V15.7719C39.15 14.2876 37.901 12.6552 35.65 12.6552C33.399 12.6552 32.15 14.2876 32.15 15.7719ZM30.7166 15.7719C30.7166 13.5751 32.5353 11.2219 35.65 11.2219C38.8408 11.2219 40.5834 13.5745 40.5833 15.7719V16.5385C40.5833 16.7572 40.5106 16.9355 40.3871 17.059C40.2636 17.1825 40.0853 17.2552 39.8666 17.2552H31.4333C31.2146 17.2552 31.0363 17.1825 30.9128 17.059C30.7893 16.9355 30.7166 16.7572 30.7166 16.5385V15.7719Z" fill="#6AA2F6" stroke="#F2F8FF" stroke-width="0.1"/>
</svg>
