<svg width="29" height="30" viewBox="0 0 29 30" fill="none" xmlns="http://www.w3.org/2000/svg">
<path d="M19.763 28.9296L19.763 28.9294L19.759 28.931C17.7788 29.7282 15.653 30.0644 13.5329 29.9157C11.4128 29.7671 9.35033 29.1373 7.49232 28.071C5.63431 27.0046 4.02635 25.528 2.78298 23.7461C1.5396 21.9642 0.691397 19.9208 0.298815 17.7613C-0.093767 15.6018 -0.0210547 13.3794 0.511768 11.2523C1.04459 9.12515 2.0244 7.14568 3.38137 5.45469C4.73834 3.76372 6.43909 2.40281 8.36251 1.46871C10.2859 0.534606 12.3848 0.0502375 14.5098 0.05C22.4961 0.05 27.5085 5.74823 28.6834 12.2082C29.8583 18.6682 27.1937 25.8797 19.8309 28.9043C19.8185 28.9087 19.8061 28.9138 19.7954 28.9179C19.7907 28.9198 19.7861 28.9215 19.7817 28.9232C19.7753 28.9255 19.7692 28.9277 19.763 28.9296ZM6.33642 25.0619L6.31591 25.0976L6.347 25.1245C8.01433 26.5719 10.0145 27.551 12.1546 27.9671C14.2947 28.3832 16.5024 28.2223 18.5648 27.5L18.599 27.4881L18.5983 27.4519C18.5298 23.6955 17.8148 19.9816 16.4868 16.4841L16.4702 16.4404L16.4254 16.4541C10.7122 18.2014 7.36816 23.2671 6.33642 25.0619ZM20.2826 26.6679L20.2856 26.7479L20.3562 26.7101C22.094 25.7793 23.6017 24.4485 24.7631 22.8204C25.9245 21.1924 26.7087 19.3105 27.0552 17.3199L27.0619 17.2815L27.0263 17.2657C24.2668 16.0349 21.2344 15.6069 18.2566 16.0279L18.1954 16.0365L18.2166 16.0945C19.4512 19.481 20.1489 23.0514 20.2826 26.6679ZM27.1757 15.4179L27.1849 15.4217H27.1949H27.1958H27.2443L27.2458 15.3732C27.3473 12.0888 26.2428 8.88607 24.1538 6.40834L24.1195 6.36768L24.081 6.4044C21.789 8.59209 19.1087 10.2999 16.1883 11.4336L16.1355 11.4541L16.1624 11.5039C16.6397 12.3881 17.09 13.348 17.5194 14.348L17.5351 14.3846L17.5743 14.3775C20.8059 13.7899 24.1321 14.1503 27.1757 15.4179ZM22.8619 5.14131L22.9017 5.10418L22.8613 5.06763C21.0832 3.4594 18.9054 2.39663 16.5738 1.99945C14.2421 1.60227 11.8494 1.88652 9.66578 2.82006L9.59646 2.8497L9.65073 2.90203C11.7853 4.96017 13.6539 7.29471 15.21 9.84772L15.2316 9.88315L15.2704 9.86846C18.0698 8.80833 20.6468 7.20367 22.8619 5.14131ZM7.98545 3.74737L7.95781 3.77706L7.9295 3.73775C6.42907 4.67267 5.13077 5.91645 4.1152 7.39174C3.09962 8.86703 2.38844 10.5423 2.02576 12.3136L2.01333 12.3743L2.07529 12.3736C5.93946 12.3311 9.77727 11.71 13.4691 10.5297L13.5301 10.5102L13.4963 10.4557C11.9568 7.9758 10.1034 5.71971 7.98545 3.74737ZM1.84455 14.1575L1.7978 14.1577L1.79485 14.2044C1.68475 15.9437 1.91394 17.6883 2.46883 19.3343C3.02372 20.9804 3.89303 22.4945 5.02519 23.7867L5.06961 23.8374L5.10524 23.7802C6.47249 21.5849 10.0449 16.7296 15.7566 14.8484L15.8091 14.8311L15.7867 14.7807C15.372 13.8468 14.9405 12.9482 14.4832 12.122L14.4632 12.0857L14.4238 12.0988C10.3573 13.4463 6.11482 14.1407 1.84455 14.1575Z" fill="#6AA2F6" stroke="#F2F8FF" stroke-width="0.1"/>
</svg>
