<svg width="23" height="33" viewBox="0 0 23 33" fill="none" xmlns="http://www.w3.org/2000/svg">
<path d="M17.0785 3.40052L17.9366 4.09764C17.9572 4.11513 17.9776 4.13275 17.998 4.15052L17.0785 3.40052ZM17.0785 3.40052H18.268H17.0785ZM11.5046 18.4884C11.6596 18.7322 11.8228 18.9706 11.9942 19.2031C12.326 19.1785 12.6273 19.1582 12.8937 19.1427L11.5046 18.4884ZM11.5046 18.4884C11.8114 18.4642 12.0979 18.443 12.3612 18.425M19.6402 4.15052H19.8271L9.26492 19.5221C8.54551 19.6501 7.83481 19.8229 7.13697 20.0395L6.91696 19.3225C6.91664 19.3226 6.91632 19.3227 6.916 19.3228C6.17052 19.5516 5.45062 19.8566 4.76768 20.2329C3.61532 20.806 2.65807 21.7071 2.01658 22.8232L2.01655 22.8231L2.01307 22.8293C1.55226 23.6489 1.29107 24.5655 1.25069 25.5048L1.24998 25.5213L1.25 25.5378C1.25087 26.3826 1.46856 27.2131 1.88224 27.9497L1.88218 27.9497L1.88699 27.958C2.3488 28.7562 2.99066 29.4354 3.76141 29.9417C4.67255 30.5431 5.67766 30.9884 6.73533 31.2591C8.06181 31.6036 9.42859 31.7681 10.7989 31.7481C12.3892 31.7729 13.974 31.5556 15.499 31.1036C16.7591 30.7306 17.9426 30.1356 18.9937 29.3469C19.904 28.6653 20.654 27.7925 21.1908 26.7899L21.1913 26.7891C21.6832 25.8677 21.9424 24.8401 21.9465 23.7956C21.9584 23.1346 21.8663 22.4757 21.6735 21.8432L21.6714 21.8363L21.6692 21.8295C21.4876 21.2723 21.2268 20.7442 20.8947 20.2614L20.8947 20.2614L20.8901 20.2548C20.571 19.8014 20.2107 19.3784 19.8136 18.9914L19.8135 18.9912C19.4358 18.6232 19.042 18.2594 18.6216 17.8973L18.5975 17.8765L18.5718 17.8579L17.0919 16.7866L17.0747 16.7742L17.0568 16.7628C16.7964 16.5958 16.5474 16.4117 16.3114 16.2117L16.3083 16.2091C16.2483 16.1588 16.2006 16.0954 16.1689 16.0239C16.1372 15.9523 16.1223 15.8744 16.1254 15.7962L16.1265 15.7683L16.1255 15.7403C16.1184 15.5408 16.1877 15.3462 16.3191 15.196C16.5552 14.9353 16.7927 14.6875 17.0345 14.4466L18.2793 13.4947L18.2861 13.4895L18.2928 13.4842C18.7565 13.1126 19.1714 12.6839 19.5277 12.2084L19.5294 12.206C19.8972 11.7111 20.1933 11.1667 20.4088 10.5889L20.4103 10.5849C20.6537 9.92089 20.7727 9.21769 20.7614 8.51058C20.7716 7.77611 20.6469 7.04596 20.3932 6.35651L20.3933 6.35649L20.3908 6.34994C20.1714 5.77026 19.8781 5.22131 19.5182 4.7167L19.5171 4.71526C19.3763 4.5187 19.2248 4.33019 19.0636 4.15052H19.6402ZM11.5047 15.1408C11.4358 15.1444 11.3663 15.1479 11.2968 15.151C11.2512 15.2642 11.2086 15.377 11.1684 15.4895L11.1657 15.497L11.1632 15.5045C11.1189 15.6374 11.0837 15.7729 11.0577 15.91C11.2237 15.9059 11.3895 15.8979 11.5439 15.8898C11.6434 15.8846 11.7406 15.8778 11.836 15.8698C11.8477 15.8268 11.8606 15.7841 11.8747 15.7418C11.9531 15.5223 12.0409 15.3039 12.1422 15.0844C11.9332 15.1095 11.7242 15.1293 11.5047 15.1408Z" stroke="#6AA2F6" stroke-width="1.5"/>
</svg>
