<svg width="31" height="31" viewBox="0 0 31 31" fill="none" xmlns="http://www.w3.org/2000/svg">
<path d="M22.608 0H8.39105C6.16627 0.00270787 4.03341 0.887759 2.46034 2.461C0.887276 4.03424 0.00246129 6.1672 0 8.39198L0 22.609C0.00270787 24.8337 0.887759 26.9666 2.461 28.5397C4.03424 30.1127 6.1672 30.9975 8.39198 31H22.608C24.8326 30.9973 26.9654 30.1124 28.5384 28.5393C30.1114 26.9663 30.9964 24.8336 30.9991 22.609V8.39198C30.9966 6.1672 30.1118 4.03424 28.5387 2.461C26.9657 0.887759 24.8328 0.00270787 22.608 0V0ZM29.1826 22.609C29.1807 24.352 28.4873 26.023 27.2548 27.2554C26.0222 28.4878 24.351 29.1809 22.608 29.1827H8.39105C6.64804 29.1809 4.97689 28.4878 3.74431 27.2554C2.51173 26.023 1.81839 24.352 1.81642 22.609V8.39198C1.81814 6.64881 2.51138 4.97752 3.74398 3.74492C4.97659 2.51231 6.64788 1.81907 8.39105 1.81735H22.608C24.351 1.81932 26.0221 2.51266 27.2545 3.74524C28.4869 4.97783 29.18 6.64897 29.1817 8.39198L29.1826 22.609Z" fill="#6AA2F6"/>
<path d="M15.4995 7.01953C13.823 7.01953 12.1842 7.51668 10.7902 8.4481C9.39621 9.37952 8.30974 10.7034 7.66817 12.2523C7.02659 13.8012 6.85873 15.5055 7.1858 17.1498C7.51287 18.7941 8.32019 20.3045 9.50567 21.49C10.6911 22.6755 12.2015 23.4828 13.8458 23.8099C15.4901 24.1369 17.1945 23.9691 18.7434 23.3275C20.2923 22.6859 21.6162 21.5995 22.5476 20.2055C23.479 18.8115 23.9761 17.1727 23.9761 15.4961C23.9737 13.2488 23.0798 11.0941 21.4907 9.505C19.9015 7.91586 17.7469 7.02199 15.4995 7.01953ZM15.4995 22.1554C14.1825 22.1554 12.895 21.7648 11.7998 21.0331C10.7047 20.3014 9.8512 19.2614 9.34718 18.0445C8.84315 16.8277 8.71128 15.4888 8.96823 14.197C9.22518 12.9052 9.85941 11.7186 10.7907 10.7873C11.722 9.85602 12.9086 9.22178 14.2004 8.96483C15.4921 8.70788 16.8311 8.83976 18.0479 9.34379C19.2648 9.84781 20.3048 10.7013 21.0365 11.7965C21.7682 12.8916 22.1588 14.1791 22.1588 15.4961C22.1578 17.2623 21.456 18.9559 20.2075 20.2052C18.959 21.4544 17.2657 22.1572 15.4995 22.1591V22.1554Z" fill="#6AA2F6"/>
<path d="M24.179 4.01172C23.6836 4.01172 23.1994 4.15861 22.7875 4.43383C22.3756 4.70904 22.0546 5.10022 21.865 5.55789C21.6754 6.01555 21.6258 6.51916 21.7224 7.00502C21.8191 7.49088 22.0576 7.93716 22.4079 8.28745C22.7582 8.63773 23.2045 8.87628 23.6903 8.97292C24.1762 9.06956 24.6798 9.01996 25.1375 8.83039C25.5951 8.64082 25.9863 8.31979 26.2615 7.9079C26.5367 7.49601 26.6836 7.01175 26.6836 6.51638C26.6819 5.85263 26.4175 5.21656 25.9482 4.74722C25.4788 4.27787 24.8427 4.01344 24.179 4.01172ZM24.179 7.2037C24.0431 7.2037 23.9101 7.16338 23.7971 7.08786C23.6841 7.01234 23.596 6.905 23.544 6.77941C23.4919 6.65381 23.4783 6.51562 23.5049 6.38229C23.5314 6.24897 23.5969 6.12649 23.693 6.03037C23.7891 5.93425 23.9116 5.86879 24.0449 5.84227C24.1782 5.81575 24.3164 5.82936 24.442 5.88138C24.5676 5.9334 24.6749 6.0215 24.7505 6.13453C24.826 6.24756 24.8663 6.38044 24.8663 6.51638C24.866 6.69859 24.7936 6.87327 24.6647 7.00212C24.5359 7.13096 24.3612 7.20345 24.179 7.2037Z" fill="#6AA2F6"/>
</svg>
