<svg width="32" height="30" viewBox="0 0 32 30" fill="none" xmlns="http://www.w3.org/2000/svg">
<path d="M7.03245 6.32629L7.03238 6.32622L7.02931 6.32929C6.49559 6.86301 5.77242 7.19808 5.00626 7.15021L5.00627 7.15002H5.00002C4.27431 7.15002 3.50048 6.85904 2.97073 6.32929L2.9708 6.32922L2.96759 6.32629C2.39117 5.79788 2.10002 5.02619 2.10002 4.25002C2.10002 3.47651 2.38952 2.75196 2.97073 2.17075C3.50048 1.641 4.22433 1.35002 5.05 1.35002C5.77391 1.35002 6.49835 1.63979 7.02931 2.17075C7.61052 2.75196 7.90002 3.47651 7.90002 4.25002C7.90002 5.02619 7.60887 5.79788 7.03245 6.32629ZM5.05 0.15C3.92495 0.15 2.89905 0.559552 2.12929 1.32931L5.00002 8.24998L5.00002 8.34998H5.00003H5.00004H5.00005H5.00006H5.00007H5.00008H5.00009H5.0001H5.00012H5.00013H5.00015H5.00016H5.00018H5.0002H5.00022H5.00025H5.00027H5.00029H5.00032H5.00034H5.00037H5.0004H5.00043H5.00046H5.00049H5.00052H5.00056H5.00059H5.00063H5.00067H5.0007H5.00074H5.00078H5.00082H5.00087H5.00091H5.00096H5.001H5.00105H5.0011H5.00114H5.00119H5.00124H5.0013H5.00135H5.0014H5.00146H5.00151H5.00157H5.00163H5.00169H5.00175H5.00181H5.00187H5.00193H5.002H5.00206H5.00213H5.0022H5.00226H5.00233H5.0024H5.00248H5.00249H5.00255H5.00262H5.00269H5.00277H5.00285H5.00292H5.003H5.00308H5.00316H5.00324H5.00332H5.00341H5.00349H5.00357H5.00366H5.00375H5.00384H5.00392H5.00401H5.0041H5.0042H5.00429H5.00438H5.00448H5.00457H5.00467H5.00476H5.00486H5.00496H5.00506H5.00516H5.00526H5.00537H5.00547H5.00558H5.00568H5.00579H5.0059H5.006H5.00611H5.00622H5.00633H5.00645H5.00656H5.00667H5.00679H5.0069H5.00702H5.00714H5.00725H5.00737H5.00749H5.00761H5.00773H5.00786H5.00798H5.00811H5.00823H5.00836H5.00848H5.00861H5.00874H5.00887H5.009H5.00913H5.00926H5.0094H5.00953H5.00966H5.0098H5.00993H5.01007H5.01021H5.01035H5.01049H5.01063H5.01077H5.01091H5.01105H5.0112H5.01134H5.01149H5.01163H5.01178H5.01193H5.01208H5.01223H5.01238H5.01253H5.01268H5.01283H5.01298H5.01314H5.01329H5.01345H5.01361H5.01376H5.01392H5.01408H5.01424H5.0144H5.01456H5.01472H5.01488H5.01505H5.01521H5.01538H5.01554H5.01571H5.01588H5.01604H5.01621H5.01638H5.01655H5.01672H5.0169H5.01707H5.01724H5.01741H5.01759H5.01776H5.01794H5.01812H5.01829H5.01847H5.01865H5.01883H5.01901H5.01919H5.01937H5.01956H5.01974H5.01992H5.02011H5.02029H5.02048H5.02067H5.02085H5.02104H5.02123H5.02142H5.02161H5.0218H5.02199H5.02218H5.02238H5.02257H5.02276H5.02296H5.02315H5.02335H5.02355H5.02374H5.02394H5.02414H5.02434H5.02454H5.02474H5.02494H5.02514H5.02534H5.02555H5.02575H5.02596H5.02616H5.02637H5.02657H5.02678H5.02699H5.0272H5.0274H5.02761H5.02782H5.02803H5.02825H5.02846H5.02867H5.02888H5.0291H5.02931H5.02953H5.02974H5.02996H5.03017H5.03039H5.03061H5.03083H5.03104H5.03126H5.03148H5.0317H5.03193H5.03215H5.03237H5.03259H5.03282H5.03304H5.03327H5.03349H5.03372H5.03394H5.03417H5.0344H5.03462H5.03485H5.03508H5.03531H5.03554H5.03577H5.036H5.03623H5.03647H5.0367H5.03693H5.03716H5.0374H5.03763H5.03787H5.0381H5.03834H5.03858H5.03881H5.03905H5.03929H5.03953H5.03977H5.04001H5.04025H5.04049H5.04073H5.04097H5.04121H5.04146H5.0417H5.04194H5.04219H5.04243H5.04268H5.04292H5.04317H5.04341H5.04366H5.04391H5.04415H5.0444H5.04465H5.0449H5.04515H5.0454H5.04565H5.0459H5.04615H5.0464H5.04665H5.04691H5.04716H5.04741H5.04767H5.04792H5.04818H5.04843H5.04869H5.04894H5.0492H5.04945H5.04971H5.04997H5.05023H5.05048H5.05074H5.051H5.05126H5.05152H5.05178H5.05204H5.0523H5.05256H5.05283H5.05309H5.05335H5.05361H5.05388H5.05414H5.0544H5.05467H5.05493H5.0552H5.05546H5.05573H5.05599H5.05626H5.05653H5.05679H5.05706H5.05733H5.0576H5.05787H5.05814H5.0584H5.05867H5.05894H5.05921H5.05948H5.05975H5.06003H5.0603H5.06057H5.06084H5.06111H5.06138H5.06166H5.06193H5.0622H5.06248H5.06275H5.06303H5.0633H5.06358H5.06385H5.06413H5.0644H5.06468H5.06495H5.06523H5.06551H5.06578H5.06606H5.06634H5.06662H5.0669H5.06717H5.06745H5.06773H5.06801H5.06829H5.06857H5.06885H5.06913H5.06941H5.06969H5.06997H5.07025H5.07053H5.07082H5.0711H5.07138H5.07166H5.07194H5.07223H5.07251H5.07279H5.07308H5.07336H5.07364H5.07393H5.07421H5.0745H5.07478H5.07507H5.07535H5.07564H5.07592H5.07621H5.07649H5.07678H5.07706H5.07735H5.07764H5.07792H5.07821H5.0785H5.07878H5.07907H5.07936H5.07965H5.07993H5.08022H5.08051H5.0808H5.08109H5.08137H5.08166H5.08195H5.08224H5.08253H5.08282H5.08311H5.0834H5.08369H5.08398H5.08427H5.08456H5.08485H5.08514H5.08543H5.08572H5.08601H5.0863H5.08659H5.08688H5.08717H5.08746H5.08775H5.08804H5.08834H5.08863H5.08892H5.08921H5.0895H5.08979H5.09009H5.09038H5.09067H5.09096H5.09125H5.09155H5.09184H5.09213H5.09242H5.09272H5.09301H5.0933H5.09359H5.09389H5.09418H5.09447H5.09476H5.09506H5.09535H5.09564H5.09594H5.09623H5.09652H5.09681H5.09711H5.0974H5.09769H5.09799H5.09828H5.09857H5.09887H5.09916H5.09945H5.09975H5.10004C6.12785 8.34998 7.10291 7.93851 7.87075 7.17067C8.6377 6.40372 9.09939 5.37963 9.10004 4.25233C9.15074 3.17143 8.68739 2.14645 7.92187 1.38037C7.15207 0.559928 6.12561 0.15 5.05 0.15Z" fill="#6AA2F6" stroke="#797B7C" stroke-width="0.2"/>
<path d="M7.00004 9.15H2.95003C2.09262 9.15 1.40002 9.84698 1.40002 10.75V28.25C1.40002 29.1052 2.14481 29.85 3.00002 29.85H7.00004C7.85307 29.85 8.60004 29.1074 8.60004 28.3V10.75C8.60004 9.89473 7.85524 9.15 7.00004 9.15ZM7.40002 28.3C7.40002 28.3903 7.35486 28.4768 7.27827 28.5432C7.2014 28.6098 7.09929 28.65 7.00004 28.65H3.00002C2.90753 28.65 2.80669 28.6027 2.72698 28.523C2.64727 28.4433 2.60003 28.3425 2.60003 28.25V10.75C2.60003 10.6507 2.64023 10.5486 2.70684 10.4717C2.77321 10.3952 2.85977 10.35 2.95003 10.35H7.00004C7.09252 10.35 7.19336 10.3973 7.27307 10.477C7.35278 10.5567 7.40002 10.6575 7.40002 10.75V28.3Z" fill="#6AA2F6" stroke="#797B7C" stroke-width="0.2"/>
<path d="M22.95 8.65C21.0641 8.65 19.2698 9.43341 18.05 10.6951V10.25C18.05 9.96749 17.9098 9.69333 17.7082 9.49179C17.5067 9.29025 17.2325 9.14998 16.95 9.14998H11.95C11.6976 9.14998 11.4249 9.26098 11.2156 9.44333C11.0052 9.62656 10.85 9.88984 10.85 10.2V28.8499C10.85 29.1612 11.0063 29.413 11.2185 29.584C11.4293 29.754 11.7012 29.8499 11.95 29.8499H17.45C17.6988 29.8499 17.9708 29.754 18.1816 29.584C18.3937 29.413 18.5501 29.1612 18.5501 28.8499V18.0499C18.5501 16.4481 19.7121 15.1999 21.2 15.1999C21.9748 15.1999 22.699 15.4903 23.2293 16.0207L23.2292 16.0208L23.2331 16.0243C23.7022 16.4465 23.9001 17.1116 23.9001 18V28.75C23.9001 29.0325 24.0403 29.3067 24.2418 29.5082C24.4434 29.7097 24.7175 29.85 25.0001 29.85H30.0001C30.2826 29.85 30.5567 29.7098 30.7583 29.5082C30.9598 29.3067 31.1001 29.0325 31.1001 28.75V15.85C31.1 11.7962 28.0067 8.65 24 8.65H22.95ZM21.25 14L21.2476 14C19.0914 14.0514 17.4 15.7977 17.4 18.05V28.65H12.1V10.35H16.9V13.45V13.6914L17.0707 13.5207L18.4207 12.1707L18.4707 12.1207L18.4765 12.1149L18.4813 12.1081C19.4618 10.7354 21.181 9.85002 23 9.85002H24.05C27.342 9.85002 29.9 12.5025 29.9 15.85V28.65H25.1495L25.1 18C25.1 16.7832 24.7954 15.854 24.1207 15.1793C23.3514 14.41 22.3258 14 21.25 14Z" fill="#6AA2F6" stroke="#797B7C" stroke-width="0.2"/>
</svg>
