<svg width="105" height="104" viewBox="0 0 105 104" fill="none" xmlns="http://www.w3.org/2000/svg">
<g filter="url(#filter0_d)">
<path d="M25.4425 65.1967C24.9542 66.2007 24.7589 25.0213 25.4425 27.0305C26.9074 26.0257 67.4358 23.013 67.8264 27.0305C68.217 31.048 67.8264 60.6775 67.8264 65.1967C67.8264 69.716 25.9307 64.1928 25.4425 65.1967Z" fill="#6AA2F6"/>
<path d="M25.4425 65.1967C24.9542 66.2007 24.7589 25.0213 25.4425 27.0305C26.9074 26.0257 67.4358 23.013 67.8264 27.0305C68.217 31.048 67.8264 60.6775 67.8264 65.1967C67.8264 69.716 25.9307 64.1928 25.4425 65.1967Z" stroke="#6AA2F6" stroke-width="2"/>
</g>
<path d="M47.0009 36C43.007 36 39.7577 39.2493 39.7577 43.2432C39.7577 48.1998 46.2397 55.4763 46.5157 55.7836C46.7749 56.0723 47.2275 56.0718 47.4862 55.7836C47.7622 55.4763 54.2442 48.1998 54.2442 43.2432C54.2441 39.2493 50.9948 36 47.0009 36ZM47.0009 46.8875C44.9915 46.8875 43.3567 45.2527 43.3567 43.2432C43.3567 41.2338 44.9915 39.599 47.0009 39.599C49.0103 39.599 50.6451 41.2338 50.6451 43.2432C50.6451 45.2527 49.0103 46.8875 47.0009 46.8875Z" fill="white"/>
<defs>
<filter id="filter0_d" x="0" y="0" width="105" height="104" filterUnits="userSpaceOnUse" color-interpolation-filters="sRGB">
<feFlood flood-opacity="0" result="BackgroundImageFix"/>
<feColorMatrix in="SourceAlpha" type="matrix" values="0 0 0 0 0 0 0 0 0 0 0 0 0 0 0 0 0 0 127 0"/>
<feOffset dx="6" dy="6"/>
<feGaussianBlur stdDeviation="15"/>
<feColorMatrix type="matrix" values="0 0 0 0 0.415686 0 0 0 0 0.635294 0 0 0 0 0.964706 0 0 0 0.35 0"/>
<feBlend mode="normal" in2="BackgroundImageFix" result="effect1_dropShadow"/>
<feBlend mode="normal" in="SourceGraphic" in2="effect1_dropShadow" result="shape"/>
</filter>
</defs>
</svg>
