<svg width="56" height="34" viewBox="0 0 56 34" fill="none" xmlns="http://www.w3.org/2000/svg">
<g opacity="0.3">
<path d="M33.5995 19C26.9609 19 23.5344 21.5027 20.5121 23.7106C17.8572 25.6495 15.7603 27.1818 11.1981 27.1818C6.63684 27.1818 4.53992 25.6495 1.88586 23.7106C-1.13647 21.5027 -4.56299 19 -11.2015 19C-17.8392 19 -21.2657 21.5027 -24.2881 23.7106C-26.9421 25.6495 -29.0391 27.1818 -33.6003 27.1818C-38.1616 27.1818 -40.2585 25.6495 -42.9126 23.7106C-45.9358 21.5027 -49.3623 19 -56 19V25.8182C-51.4379 25.8182 -49.3418 27.3496 -46.6877 29.2885C-43.6646 31.4973 -40.2389 34 -33.6003 34C-26.9626 34 -23.5361 31.4964 -20.5138 29.2885C-17.8597 27.3496 -15.7628 25.8182 -11.2015 25.8182C-6.6394 25.8182 -4.54333 27.3496 -1.88843 29.2885C1.13391 31.4973 4.56042 34 11.1981 34C17.8367 34 21.2632 31.4964 24.2864 29.2885C26.9404 27.3496 29.0374 25.8182 33.5995 25.8182C38.1616 25.8182 40.2577 27.3496 42.9126 29.2885C45.9349 31.4973 49.3615 34 56 34V27.1818C51.4379 27.1818 49.3409 25.6495 46.6869 23.7106C43.6637 21.5027 40.2372 19 33.5995 19Z" fill="#C8DDFB"/>
<path d="M46.6869 4.39737C43.6637 2.33582 40.2372 0 33.5995 0C26.9609 0 23.5344 2.33582 20.5121 4.39737C17.8572 6.20703 15.7603 7.63636 11.1981 7.63636C6.63684 7.63636 4.53992 6.20703 1.88586 4.39737C-1.13647 2.33582 -4.56299 0 -11.2015 0C-17.8392 0 -21.2657 2.33582 -24.2881 4.39737C-26.9421 6.20703 -29.0391 7.63636 -33.6003 7.63636C-38.1616 7.63636 -40.2585 6.20703 -42.9126 4.39737C-45.9358 2.33582 -49.3623 0 -56 0V6.36364C-51.4379 6.36364 -49.3418 7.79297 -46.6877 9.60263C-43.6646 11.6642 -40.2389 14 -33.6003 14C-26.9626 14 -23.5361 11.6642 -20.5138 9.60263C-17.8597 7.79297 -15.7628 6.36364 -11.2015 6.36364C-6.6394 6.36364 -4.54333 7.79297 -1.88843 9.60263C1.13391 11.6642 4.56042 14 11.1981 14C17.8367 14 21.2632 11.6642 24.2864 9.60263C26.9404 7.79297 29.0374 6.36364 33.5995 6.36364C38.1616 6.36364 40.2577 7.79297 42.9126 9.60263C45.9349 11.6642 49.3615 14 56 14V7.63636C51.4379 7.63636 49.3409 6.20703 46.6869 4.39737Z" fill="#C8DDFB"/>
</g>
</svg>
